<?xml version="1.0" encoding="UTF-8" standalone="no"?>
<!-- Created with Inkscape (http://www.inkscape.org/) -->

<svg
   xmlns:dc="http://purl.org/dc/elements/1.1/"
   xmlns:cc="http://creativecommons.org/ns#"
   xmlns:rdf="http://www.w3.org/1999/02/22-rdf-syntax-ns#"
   xmlns:svg="http://www.w3.org/2000/svg"
   xmlns="http://www.w3.org/2000/svg"
   xmlns:sodipodi="http://sodipodi.sourceforge.net/DTD/sodipodi-0.dtd"
   xmlns:inkscape="http://www.inkscape.org/namespaces/inkscape"
   width="579.70081"
   height="270"
   viewBox="0 0 153.38014 71.437512"
   version="1.1"
   id="svg8"
   inkscape:version="0.92.4 (5da689c313, 2019-01-14)"
   sodipodi:docname="logo2.svg">
  <defs
     id="defs2" />
  <sodipodi:namedview
     id="base"
     pagecolor="#ffffff"
     bordercolor="#666666"
     borderopacity="1.0"
     inkscape:pageopacity="0.0"
     inkscape:pageshadow="2"
     inkscape:zoom="0.35"
     inkscape:cx="-27.142857"
     inkscape:cy="445.71429"
     inkscape:document-units="mm"
     inkscape:current-layer="layer1"
     showgrid="false"
     units="px"
     inkscape:window-width="1366"
     inkscape:window-height="705"
     inkscape:window-x="-8"
     inkscape:window-y="-8"
     inkscape:window-maximized="1" />
  <metadata
     id="metadata5">
    <rdf:RDF>
      <cc:Work
         rdf:about="">
        <dc:format>image/svg+xml</dc:format>
        <dc:type
           rdf:resource="http://purl.org/dc/dcmitype/StillImage" />
        <dc:title></dc:title>
      </cc:Work>
    </rdf:RDF>
  </metadata>
  <g
     inkscape:label="Layer 1"
     inkscape:groupmode="layer"
     id="layer1"
     transform="translate(0,-225.56063)">
    <g
       id="g847">
      <path
         inkscape:connector-curvature="0"
         id="path844"
         d="m 3.1560983,281.97543 v -2.11666 l 1.12448,-0.006 c 1.75718,-0.009 3.23794,-0.81707 3.95323,-2.15712 l 0.61083,-1.14435 0.0736,-17.13177 0.0736,-17.13178 h 2.6384197 2.63842 l -0.002,15.80886 c -0.001,9.78162 -0.1081,16.46454 -0.28029,17.52864 -0.76428,4.72321 -3.40469,7.45113 -7.9213897,8.18392 -3.06776,0.49771 -2.90881,0.59792 -2.90881,-1.83392 z m 22.3129597,-4.70687 c -1.90049,-0.67931 -3.01339,-1.60546 -3.9233,-3.26495 -0.66902,-1.22019 -0.77834,-1.70117 -0.77391,-3.40526 0.009,-3.40875 1.5404,-5.71151 4.77374,-7.17758 1.88729,-0.85574 5.45405,-1.55367 7.93996,-1.55367 h 1.68513 l -0.001,-2.3151 c -10e-4,-2.70908 -0.49987,-3.82898 -1.98068,-4.4477 -1.90505,-0.79598 -5.91188,-0.28876 -8.64012,1.09375 -0.69671,0.35308 -1.33029,0.64197 -1.40788,0.64197 -0.0776,0 -0.14109,-0.93374 -0.14109,-2.07497 v -2.07496 l 2.44739,-0.76931 c 2.21476,-0.69618 2.79951,-0.7693 6.15157,-0.7693 3.61709,0 3.7377,0.0186 5.13085,0.79013 3.0345,1.68057 3.45834,3.26027 3.46397,12.91055 0.005,7.82706 0.14503,8.68607 1.50484,9.20307 0.4029,0.15319 0.94494,0.22298 1.20453,0.15509 0.49032,-0.12822 0.60149,0.13119 0.80731,1.88382 0.0991,0.84404 0.0656,0.87607 -1.34733,1.28682 -2.75619,0.80124 -4.73571,0.12561 -5.73709,-1.95814 -0.29104,-0.60562 -0.61605,-1.10544 -0.72224,-1.11071 -0.10619,-0.005 -0.82056,0.4676 -1.5875,1.05084 -2.74488,2.08741 -6.23517,2.8392 -8.84709,1.90561 z m 6.72806,-4.20261 c 0.50423,-0.21068 1.37956,-0.68931 1.94518,-1.06361 l 1.02838,-0.68056 v -3.27213 -3.27213 l -1.52135,0.004 c -4.59329,0.0125 -8.00365,2.14348 -8.00365,5.00117 0,3.22698 3.03988,4.75035 6.55144,3.28313 z m 79.794062,4.17242 c -2.83374,-0.81095 -4.58429,-1.86087 -6.86911,-4.11986 -3.45725,-3.41816 -4.60114,-6.21372 -4.59644,-11.23329 0.005,-4.9403 1.12013,-7.57122 4.72539,-11.14479 1.9461,-1.92899 2.59341,-2.39223 4.38423,-3.13754 4.98796,-2.07589 10.87219,-1.62527 15.05808,1.15316 3.07611,2.0418 5.74151,5.70296 6.65728,9.1443 0.49826,1.87242 0.49969,6.32031 0.003,8.18809 -0.73858,2.77534 -1.93786,4.77516 -4.21372,7.02644 -2.4252,2.39901 -4.58781,3.62238 -7.49086,4.23753 -2.39865,0.50827 -5.65225,0.45982 -7.65748,-0.11404 z m 7.02779,-2.5495 c 7.14088,-1.68323 11.52032,-8.99216 9.67072,-16.13962 -0.99813,-3.85706 -4.4428,-7.55956 -8.26151,-8.87985 -4.76919,-1.64891 -9.78891,-0.4803 -13.43188,3.127 -5.67034,5.61481 -5.10047,14.69836 1.22787,19.57201 3.08427,2.37528 6.99543,3.21603 10.7948,2.32046 z m -7.29048,-1.52316 c -2.78962,-1.19407 -2.84521,-1.32436 -1.32554,-3.10687 0.95135,-1.1159 1.22246,-0.9607 2.553,1.4615 1.35699,2.47035 1.19795,2.68354 -1.22746,1.64537 z m 6.52136,0.47222 c 0,-0.4911 2.25228,-4.3625 2.53799,-4.3625 0.32619,0 2.22451,2.04127 2.22451,2.39202 0,0.0991 -0.68461,0.54107 -1.52136,0.98226 -1.51617,0.79944 -3.24114,1.32538 -3.24114,0.98822 z m -3.80281,-1.25364 c -4.38333,-7.58164 -8.63261,-15.19519 -8.63261,-15.46726 0,-0.48971 0.23955,-0.43932 2.35623,0.4956 l 1.89543,0.83719 2.9582,5.22865 c 1.62701,2.87575 3.04009,5.17803 3.14019,5.11616 0.10009,-0.0619 1.47345,-2.39623 3.05191,-5.18749 l 2.86991,-5.07502 1.90089,-0.87834 c 2.04377,-0.94436 2.46474,-1.04393 2.46474,-0.58293 0,0.41778 -9.28728,16.63792 -9.52649,16.63792 -0.23817,0 -0.52616,-1.34345 -0.53173,-2.48047 -0.002,-0.45475 -0.11946,-1.00542 -0.26053,-1.2237 -0.19592,-0.30316 -0.25744,-0.20256 -0.26053,0.42609 -0.007,1.38866 -0.32847,3.27808 -0.55803,3.27808 -0.11961,0 -0.51002,-0.50602 -0.86758,-1.12448 z m -7.93886,-3.43988 c -0.80371,-1.05371 -1.81542,-3.35563 -1.65666,-3.76935 0.10656,-0.27769 3.80764,-1.10231 3.98393,-0.88764 0.0421,0.0513 0.39355,0.64275 0.781,1.3144 l 0.70446,1.22117 -1.22731,1.49081 c -0.67502,0.81994 -1.38527,1.4908 -1.57832,1.4908 -0.19305,0 -0.64625,-0.38708 -1.0071,-0.86019 z m 16.65818,-0.58326 -1.23317,-1.44345 0.68956,-1.3608 c 0.65278,-1.28819 0.73451,-1.35273 1.53177,-1.20948 0.46321,0.0832 1.35085,0.22969 1.97254,0.32547 0.62169,0.0958 1.19524,0.27914 1.27456,0.40748 0.17183,0.27802 -0.96682,2.83982 -1.7529,3.94377 -0.30566,0.42925 -0.71176,0.78046 -0.90246,0.78046 -0.19069,0 -0.90165,-0.64955 -1.5799,-1.44345 z m -9.00242,-5.32614 c -0.95421,-1.68599 -1.73493,-3.2338 -1.73493,-3.43959 0,-0.30466 0.68793,-0.37415 3.70417,-0.37415 2.58177,0 3.70417,0.0908 3.70417,0.29961 0,0.44858 -3.46582,6.57955 -3.7194,6.57955 -0.1205,0 -0.9998,-1.37944 -1.95401,-3.06542 z m -9.64605,-1.86547 c 0.0299,-1.75726 0.26071,-2.79362 0.65125,-2.9238 0.36657,-0.12219 2.35047,3.61161 2.06501,3.88644 -0.126,0.12131 -0.79464,0.3034 -1.48587,0.40466 l -1.25677,0.1841 0.0264,-1.5514 z m 21.40487,1.30058 c -0.3638,-0.0653 -0.75988,-0.21295 -0.88018,-0.3282 -0.24844,-0.23803 1.1595,-3.17767 1.76108,-3.67693 0.56631,-0.47 0.72421,-0.0797 0.89816,2.22032 0.16502,2.18196 0.20593,2.14092 -1.77906,1.78481 z m -17.54708,-5.6994 c -0.84689,-0.47121 -1.56127,-0.97581 -1.5875,-1.12133 -0.0307,-0.17014 2.78566,-0.29285 7.88979,-0.34379 7.98849,-0.0797 10.71563,0.0453 10.71563,0.49131 0,0.13296 -0.71098,0.60064 -1.57996,1.0393 l -1.57995,0.79756 -6.15911,-0.003 -6.15911,-0.003 z m -0.70917,-2.94123 c 0,-0.46236 2.67785,-2.54572 3.27214,-2.54572 0.44476,0 0.87025,0.81057 1.14581,2.18281 l 0.14612,0.7276 h -2.28204 c -1.7626,0 -2.28203,-0.083 -2.28203,-0.36469 z m 7.02258,0.1181 c -0.0927,-0.14994 -0.40229,-0.95219 -0.68806,-1.78278 -0.36633,-1.06476 -0.43677,-1.59296 -0.23881,-1.79091 0.35781,-0.35781 4.37279,-0.36913 4.72859,-0.0133 0.18018,0.18018 0.065,0.82757 -0.35297,1.98437 l -0.6204,1.71695 -1.32993,0.0791 c -0.73147,0.0435 -1.40576,-0.0435 -1.49842,-0.19345 z m 5.54353,-0.98269 c 0.484,-1.6082 0.74186,-1.85072 1.56772,-1.47443 0.77974,0.35527 2.79951,2.13725 2.79951,2.46992 0,0.12859 -1.06587,0.23379 -2.3686,0.23379 h -2.36859 z m -71.039022,11.41574 v -12.83229 h 2.513546 2.51354 v 2.02407 2.02408 l 0.76323,-1.05362 c 1.74124,-2.40371 3.91037,-3.5237 6.82452,-3.5237 h 1.67266 v 2.22387 2.22387 l -1.5858,-0.14379 c -2.63851,-0.23926 -4.93142,0.99902 -6.92423,3.7394 l -0.75038,1.03188 v 8.55926 8.55926 h -2.51354 -2.513546 z m 20.401686,0.54554 c -2.51222,-6.75771 -4.63186,-12.53224 -4.71033,-12.83229 -0.13631,-0.52125 -0.0363,-0.54554 2.24629,-0.54554 h 2.38895 l 0.77869,2.05052 c 0.42828,1.12779 2.06592,5.48596 3.63919,9.68482 l 2.8605,7.6343 0.97626,-2.47492 c 0.53694,-1.36121 2.25297,-5.71938 3.81339,-9.68482 l 2.83714,-7.2099 h 2.24726 c 1.79973,0 2.23024,0.0744 2.16173,0.37374 -0.047,0.20555 -2.28821,5.97775 -4.98034,12.8271 l -4.89479,12.45336 -2.39814,0.005 -2.39814,0.005 z m 23.78373,-5.17575 v -17.4625 h 2.64583 2.64584 v 17.4625 17.4625 h -2.64584 -2.64583 z m 43.127086,1.98438 v -15.47813 h -6.08542 -6.08542 v -1.98437 -1.98438 h 13.36146 13.36146 v 1.98438 1.98437 h -4.63021 -4.63021 v 15.47813 15.47812 h -2.64583 -2.64583 z"
         style="fill:#ffffff;stroke-width:0.26458332" />
    </g>
  </g>
</svg>
