<?xml version="1.0" encoding="UTF-8" standalone="no"?>
<!-- Created with Inkscape (http://www.inkscape.org/) -->

<svg
   xmlns:dc="http://purl.org/dc/elements/1.1/"
   xmlns:cc="http://creativecommons.org/ns#"
   xmlns:rdf="http://www.w3.org/1999/02/22-rdf-syntax-ns#"
   xmlns:svg="http://www.w3.org/2000/svg"
   xmlns="http://www.w3.org/2000/svg"
   xmlns:xlink="http://www.w3.org/1999/xlink"
   xmlns:sodipodi="http://sodipodi.sourceforge.net/DTD/sodipodi-0.dtd"
   xmlns:inkscape="http://www.inkscape.org/namespaces/inkscape"
   width="210mm"
   height="297mm"
   viewBox="0 0 210 297"
   version="1.1"
   id="svg8"
   sodipodi:docname="jarviotlogo2.svg"
   inkscape:version="0.92.4 (5da689c313, 2019-01-14)">
  <defs
     id="defs2">
    <clipPath
       id="clipPath636"
       clipPathUnits="userSpaceOnUse">
      <path
         inkscape:connector-curvature="0"
         id="path634"
         d="M 0,1190.55 H 841.89 V 0 H 0 Z" />
    </clipPath>
  </defs>
  <sodipodi:namedview
     id="base"
     pagecolor="#ffffff"
     bordercolor="#666666"
     borderopacity="1.0"
     inkscape:pageopacity="0.0"
     inkscape:pageshadow="2"
     inkscape:zoom="0.35"
     inkscape:cx="963.11586"
     inkscape:cy="445.71429"
     inkscape:document-units="mm"
     inkscape:current-layer="layer1"
     showgrid="false"
     inkscape:window-width="1366"
     inkscape:window-height="705"
     inkscape:window-x="-8"
     inkscape:window-y="-8"
     inkscape:window-maximized="1" />
  <metadata
     id="metadata5">
    <rdf:RDF>
      <cc:Work
         rdf:about="">
        <dc:format>image/svg+xml</dc:format>
        <dc:type
           rdf:resource="http://purl.org/dc/dcmitype/StillImage" />
        <dc:title></dc:title>
      </cc:Work>
    </rdf:RDF>
  </metadata>
  <g
     inkscape:label="Layer 1"
     inkscape:groupmode="layer"
     id="layer1">
    <g
       id="g24188"
       style="fill:#00ffff"
       transform="translate(-261.55952,-8.3154762)">
      <g
         style="fill:#00ffff"
         id="g628"
         inkscape:label="jarviot circle"
         transform="matrix(0.27877392,0,0,-0.27896754,252.09232,323.94646)">
        <g
           style="fill:#00ffff"
           id="g630">
          <g
             style="fill:#00ffff"
             id="g632"
             clip-path="url(#clipPath636)">
            <g
               style="fill:#00ffff"
               id="g638"
               transform="translate(478.1201,517.7316)">
              <path
                 d="m 0,0 c 3.144,0.946 6.266,1.962 9.409,2.908 1.279,0.386 2.005,0.124 2.422,-1.031 1.211,-3.354 2.344,-6.737 3.454,-10.126 0.188,-0.572 -0.152,-1.113 -0.697,-1.418 -0.371,-0.208 -0.764,-0.398 -1.17,-0.519 -5.2,-1.538 -10.395,-3.097 -15.613,-4.568 -1.86,-0.523 -2.187,-0.284 -2.701,1.624 -0.819,3.031 -1.566,6.08 -2.334,9.124 -0.105,0.413 -0.161,0.839 -0.252,1.336 0.287,0.26 0.545,0.674 0.897,0.781 C -4.4,-1.224 -2.187,-0.658 0,0 m 16.775,461.597 c -1.236,-3.192 -2.589,-6.338 -3.918,-9.493 -0.251,-0.596 -0.79,-0.774 -1.409,-0.691 -0.281,0.038 -0.568,0.083 -0.836,0.173 -4.876,1.645 -9.761,3.263 -14.616,4.97 -0.122,0.042 -0.217,0.086 -0.323,0.13 0.206,0.982 0.383,1.97 0.532,2.962 0.58,1.87 1.255,3.713 2.113,5.529 0.707,1.495 1.314,2.912 1.637,4.374 0.045,-0.012 0.081,-0.02 0.128,-0.033 2.471,-0.719 4.916,-1.52 6.481,-2.008 3.573,-1.281 6.284,-2.193 8.947,-3.229 1.439,-0.561 1.801,-1.298 1.264,-2.684 M 52.862,6.852 C 47.6,3.942 42.241,1.228 36.686,-1.086 c -0.743,-0.31 -1.491,-0.226 -1.838,0.53 -1.554,3.376 -3.048,6.78 -4.539,10.184 -0.1,0.228 0.012,0.549 0.031,0.914 0.27,0.232 0.548,0.58 0.909,0.763 4.98,2.517 9.975,5.008 14.96,7.518 0.952,0.48 1.622,0.234 2.109,-0.679 1.684,-3.157 3.379,-6.307 5.054,-9.469 0.392,-0.738 0.225,-1.417 -0.51,-1.823 m 34.792,22.43 c -2.948,-2.237 -5.884,-4.497 -8.936,-6.587 -2.099,-1.437 -4.033,-3.163 -6.466,-4.082 -2.264,1.616 -3.095,4.295 -4.72,6.387 -0.783,1.009 -1.444,2.115 -2.111,3.208 -0.211,0.346 -0.262,0.79 -0.403,1.248 0.262,0.335 0.455,0.737 0.773,0.964 4.517,3.226 9.048,6.434 13.583,9.635 0.791,0.558 1.601,0.619 2.255,-0.204 2.125,-2.675 4.253,-5.348 6.323,-8.065 0.867,-1.139 0.8,-1.671 -0.298,-2.504 m 30.602,27.83 c -2.444,-2.585 -4.942,-5.122 -7.458,-7.636 -1.509,-1.509 -3.089,-2.947 -4.654,-4.397 -0.439,-0.407 -0.983,-0.538 -1.674,-0.303 -0.257,0.197 -0.639,0.412 -0.923,0.716 -2.233,2.395 -4.46,4.792 -6.655,7.22 -0.618,0.683 -0.861,1.471 -0.079,2.257 3.815,3.835 7.616,7.683 11.443,11.505 1.159,1.158 1.848,1.245 2.931,0.268 2.431,-2.192 4.828,-4.426 7.181,-6.701 1.055,-1.02 1.034,-1.717 -0.112,-2.929 m 9.662,327.459 c -2.78,-2.224 -5.541,-4.473 -8.314,-6.707 -0.828,-0.667 -1.505,-0.461 -2.182,0.309 -3.573,4.062 -7.175,8.099 -10.762,12.149 -0.479,0.542 -0.883,1.123 -0.569,2.026 0.187,0.243 0.409,0.615 0.71,0.906 2.354,2.276 4.706,4.556 7.097,6.792 0.964,0.902 1.585,0.897 2.535,-0.167 3.888,-4.351 7.725,-8.75 11.572,-13.139 0.639,-0.728 0.806,-1.454 -0.087,-2.169 m 4.9,-286.908 c 0.817,1.131 1.351,1.198 3.18,0.368 2.298,-1.505 5.159,-3.375 8.015,-5.256 0.708,-0.467 0.787,-1.152 0.477,-1.868 -0.224,-0.518 -0.52,-1.015 -0.845,-1.479 -3.028,-4.318 -6.046,-8.643 -9.118,-12.93 -1.05,-1.467 -1.462,-1.516 -2.744,-0.544 -2.725,2.068 -5.432,4.162 -8.126,6.273 -0.775,0.608 -0.912,1.325 -0.276,2.21 3.162,4.397 6.269,8.833 9.437,13.226 m 18.252,252.36 c -2.966,-1.711 -5.955,-3.382 -8.924,-5.086 -0.923,-0.53 -1.642,-0.308 -2.171,0.542 -3.013,4.846 -6.017,9.697 -9.002,14.56 -0.31,0.503 -0.397,1.155 0.159,1.535 3.176,2.171 6.376,4.306 9.583,6.43 0.207,0.137 0.541,0.084 0.891,0.129 0.272,-0.254 0.644,-0.495 0.875,-0.833 3.316,-4.823 6.37,-9.811 9.248,-14.904 0.749,-1.323 0.628,-1.63 -0.659,-2.373 m 17.574,-37.573 c -3.329,-1.257 -6.671,-2.471 -10.005,-3.713 -1.077,-0.401 -1.547,0.163 -1.904,1.071 -1.299,3.311 -2.607,6.62 -3.954,9.913 -0.754,1.843 -1.611,3.644 -2.379,5.482 -0.298,0.715 -0.208,1.486 0.542,1.843 3.463,1.65 6.953,3.242 10.438,4.846 0.114,0.053 0.272,0.009 0.525,0.012 0.233,-0.237 0.644,-0.479 0.791,-0.832 2.3,-5.514 4.57,-11.042 6.835,-16.571 0.396,-0.964 0.057,-1.693 -0.889,-2.051 m 10.917,-40.1 c -3.885,-0.727 -7.728,-1.737 -11.874,-2.112 -0.558,2.675 -1.04,5.175 -1.609,7.655 -0.763,3.329 -1.573,6.649 -2.409,9.96 -0.256,1.018 0.02,1.672 1.02,1.946 3.431,0.942 6.865,1.876 10.307,2.774 1,0.262 1.638,-0.225 1.868,-1.218 1.284,-5.546 2.593,-11.086 3.823,-16.644 0.322,-1.453 -0.034,-2.156 -1.126,-2.361 m 4.002,-41.393 c -3.563,-0.063 -7.126,-0.148 -10.691,-0.179 -0.815,-0.007 -1.303,0.515 -1.342,1.347 -0.132,2.849 -0.216,5.7 -0.375,8.547 -0.15,2.705 -0.402,5.404 -0.552,8.109 -0.075,1.334 0.322,1.8 1.684,1.944 3.403,0.358 6.814,0.663 10.223,0.963 1.048,0.092 1.561,-0.492 1.643,-1.502 0.196,-2.416 0.437,-4.831 0.576,-7.25 0.169,-2.989 0.267,-5.982 0.368,-8.975 0.023,-0.703 -0.069,-1.41 -0.096,-1.909 -0.392,-0.735 -0.798,-1.084 -1.438,-1.095 m -12.651,-40.104 c -1.624,0.256 -1.984,0.723 -1.832,2.256 0.537,5.405 1.104,10.807 1.689,16.206 0.128,1.191 0.662,1.569 2.104,1.496 3.143,-0.158 6.284,-0.338 9.422,-0.564 1.812,-0.13 2.292,-0.642 2.112,-2.461 -0.52,-5.261 -1.121,-10.515 -1.69,-15.771 -0.066,0.007 -0.132,0.014 -0.197,0.022 -0.029,-0.285 -0.041,-0.573 -0.089,-0.854 -0.304,-1.816 -0.371,-1.892 -2.18,-1.652 -3.116,0.414 -6.233,0.832 -9.339,1.322 m -7.013,-64.014 c -0.086,-0.273 -0.17,-0.546 -0.548,-1.758 -1.925,-3.857 -4.233,-8.606 -6.665,-13.289 -0.833,-1.604 -1.075,-1.586 -2.68,-0.741 -2.652,1.395 -5.314,2.78 -7.906,4.281 -1.899,1.099 -1.944,1.357 -1.021,3.425 0.815,1.824 1.775,3.581 2.609,5.396 1.254,2.723 2.429,5.482 3.687,8.203 0.712,1.541 1.608,1.953 3.097,1.15 2.534,-1.367 5.264,-2.219 7.893,-3.334 1.871,-0.794 2.123,-1.448 1.534,-3.333 m -2.765,25.477 c -1.298,0.439 -1.557,0.959 -1.172,2.282 0.757,2.599 1.597,5.173 2.402,7.758 -0.065,0.02 -0.131,0.041 -0.197,0.061 0.764,2.449 1.5,4.905 2.299,7.342 0.553,1.686 0.889,1.89 2.455,1.543 3.055,-0.677 6.118,-1.328 9.142,-2.124 1.699,-0.447 2.035,-1.1 1.583,-2.878 -0.667,-2.623 -1.448,-5.217 -2.225,-7.81 -0.818,-2.729 -1.651,-5.455 -2.554,-8.157 -0.393,-1.177 -1.005,-1.437 -2.373,-1.021 -3.135,0.956 -6.257,1.955 -9.36,3.004 M 74.55,420.427 c 2.138,3.643 4.645,6.724 7.071,9.861 0.662,0.856 1.486,0.678 2.242,0.104 1.814,-1.381 3.642,-2.746 5.404,-4.191 3.071,-2.519 6.097,-5.094 9.29,-7.768 -2.709,-3.759 -5.585,-7.026 -8.937,-10.13 -5.073,4.081 -10.027,8.067 -15.07,12.124 m -36.688,24.245 c 1.366,2.815 2.829,5.583 4.305,8.342 0.641,1.196 1.173,1.321 3.238,0.51 3.474,-1.953 7.692,-4.32 11.904,-6.696 0.495,-0.28 0.963,-0.607 1.447,-0.907 2.323,-1.44 2.351,-1.508 0.929,-3.91 -1.525,-2.572 -3.055,-5.14 -4.633,-7.679 -0.674,-1.083 -1.348,-1.193 -2.519,-0.544 -4.603,2.552 -9.204,5.107 -13.796,7.68 -1.435,0.803 -1.689,1.528 -0.875,3.204 m 170.02,-28.316 c 3.041,-4.539 6.096,-9.075 8.95,-13.731 14.626,-23.862 26.136,-49.147 34.477,-75.87 3.32,-10.64 6.147,-21.411 8.375,-32.329 5.122,-25.106 7.362,-50.477 6.675,-76.091 -0.236,-8.81 -0.898,-17.594 -1.818,-26.366 -0.656,-6.265 -1.645,-12.479 -2.472,-18.717 -0.398,-3.015 -0.908,-6.03 -1.611,-8.988 -1.772,-7.463 -2.957,-15.058 -5.078,-22.44 -1.625,-5.654 -3.166,-11.338 -4.999,-16.925 -2.127,-6.478 -4.357,-12.935 -6.852,-19.278 -6.344,-16.135 -13.825,-31.729 -22.55,-46.727 -7.884,-13.55 -16.685,-26.469 -26.366,-38.787 -9.428,-11.994 -19.676,-23.259 -30.718,-33.791 -3.497,-3.335 -7.1,-6.557 -10.661,-9.826 -0.619,-0.568 -1.251,-1.125 -1.908,-1.648 -0.238,-0.191 -0.438,-0.275 -0.632,-0.303 -1.762,-1.594 -3.565,-3.149 -5.452,-4.587 -6.102,-4.646 -11.836,-9.768 -18.156,-14.132 -4.841,-3.341 -9.637,-6.759 -14.597,-9.917 -5.753,-3.662 -11.57,-7.24 -17.522,-10.563 C 79.83,-73.113 64.158,-80.43 47.9,-86.494 33.213,-91.974 18.216,-96.383 2.92,-99.769 c -14,-3.098 -28.152,-5.227 -42.436,-6.421 l 0.328,69.876 c 32.688,3.274 64.805,12.919 96.351,28.955 63.724,34.315 106.872,85.871 129.54,154.588 20.772,69.641 14.829,136.864 -18.243,201.632 -34.296,63.538 -85.446,107.197 -154.342,129.095 -17.475,5.554 -35.097,9.164 -52.639,10.975 l 0.337,72.134 c 1.08,-0.105 2.16,-0.207 3.237,-0.335 3.957,-0.472 7.926,-0.846 11.883,-1.323 2.186,-0.263 4.345,-0.716 6.535,-1.003 3.534,-0.464 7.033,-1.213 10.541,-1.873 6.92,-1.301 13.808,-2.743 20.579,-4.698 3.565,-0.91 7.19,-1.635 10.68,-2.775 4.789,-1.565 9.676,-2.811 14.385,-4.637 2.539,-0.984 5.161,-1.76 7.728,-2.694 11.253,-4.096 22.204,-8.865 32.938,-14.165 12.158,-6.004 23.898,-12.732 35.217,-20.192 8.95,-5.898 17.567,-12.247 25.929,-18.962 14.292,-11.48 27.476,-24.112 39.68,-37.769 9.675,-10.827 18.649,-22.213 26.734,-34.283 m -253.907,-433.9 c -0.188,2.95 -0.58,5.895 -0.586,8.852 6.109,0.808 11.892,1.581 17.678,2.334 1.447,0.188 1.917,-0.081 2.142,-1.364 0.591,-3.373 1.141,-6.753 1.654,-10.138 0.218,-1.432 -0.024,-1.806 -1.472,-1.999 -4.804,-0.643 -9.612,-1.266 -14.43,-1.785 -4.604,-0.496 -4.645,-1.291 -4.986,4.1 m -3.743,482.074 c 0.119,3.428 0.236,6.857 0.378,10.284 0.017,0.4 0.19,0.794 0.292,1.199 2.186,0.7 4.329,0.147 6.435,0.021 3.992,-0.237 7.971,-0.71 11.952,-1.115 1.905,-0.194 2.159,-0.41 1.948,-2.48 -0.374,-3.674 -0.908,-7.333 -1.398,-11.174 -1.782,0.114 -3.331,0.189 -4.876,0.318 -3.561,0.299 -7.119,0.624 -10.678,0.94 -0.853,0.076 -1.712,0.123 -2.556,0.257 -0.961,0.153 -1.533,0.717 -1.497,1.75 M -66.811,-22.749 c -6.305,-0.193 -12.421,0.234 -18.53,0.743 -1.645,0.138 -2.039,0.616 -1.932,2.187 0.232,3.419 0.551,6.833 0.882,10.244 0.057,0.595 0.495,1.009 1.15,1.071 0.426,0.04 0.863,0.142 1.28,0.093 5.119,-0.607 10.269,-0.568 15.407,-0.788 1.761,-0.076 2.088,-0.339 2.06,-1.952 -0.066,-3.821 0.327,-7.662 -0.317,-11.598 m -99.387,19.784 c -0.534,0.235 -1.073,0.457 -1.607,0.695 -0.197,0.089 -0.391,0.182 -0.587,0.271 0.727,-0.328 1.463,-0.645 2.194,-0.966 m -0.864,4.472 c 1.226,3.029 2.576,6.008 3.908,8.992 0.413,0.927 1.067,1.077 2.112,0.648 4.863,-1.995 9.729,-3.985 14.596,-5.97 1.75,-0.714 1.941,-1.048 1.422,-2.891 -0.386,-1.369 -0.84,-2.72 -1.264,-4.079 -0.062,0.02 -0.123,0.038 -0.184,0.058 -0.508,-1.631 -0.963,-3.281 -1.541,-4.886 -0.544,-1.512 -1.023,-1.787 -2.605,-1.209 -3.471,1.268 -6.905,2.638 -10.33,4.026 -1.709,0.694 -3.39,1.468 -5.036,2.299 -1.693,0.856 -1.835,1.142 -1.078,3.012 m -7.637,451.202 c 5.347,2.407 10.701,4.799 16.071,7.157 1.338,0.588 1.834,0.374 2.348,-0.904 1.283,-3.184 2.53,-6.381 3.77,-9.582 0.148,-0.38 0.164,-0.812 0.251,-1.271 -0.344,-0.293 -0.616,-0.651 -0.977,-0.814 -5.087,-2.285 -10.188,-4.539 -15.278,-6.816 -0.915,-0.409 -1.66,-0.353 -2.149,0.611 -1.619,3.189 -3.247,6.374 -4.829,9.581 -0.497,1.009 -0.279,1.556 0.793,2.038 m -36.595,-22.124 c 0.19,0.207 0.431,0.569 0.76,0.811 4.708,3.464 9.618,6.626 14.612,9.66 0.782,0.476 1.625,0.61 2.213,-0.363 1.77,-2.924 3.568,-5.834 5.279,-8.793 0.756,-1.305 0.538,-1.902 -0.847,-2.818 -4.278,-2.829 -8.563,-5.645 -12.869,-8.431 -1.554,-1.005 -2.112,-0.901 -3.213,0.585 -1.866,2.519 -3.679,5.077 -5.499,7.629 -0.328,0.459 -0.612,0.958 -0.436,1.72 m -31.303,-26.307 c 4.263,4 8.524,7.999 12.805,11.979 0.671,0.624 1.565,0.985 2.27,0.189 2.457,-2.776 4.845,-5.613 7.222,-8.459 0.232,-0.278 0.2,-0.777 0.284,-1.141 -0.348,-0.383 -0.613,-0.72 -0.921,-1.01 -3.844,-3.614 -7.69,-7.224 -11.542,-10.829 -1.301,-1.217 -1.682,-1.271 -2.835,-0.16 -2.466,2.373 -4.894,4.785 -7.317,7.202 -0.723,0.721 -0.729,1.513 0.034,2.229 M -264.235,77.793 c 2.842,2.165 5.691,4.322 8.557,6.455 0.785,0.584 1.582,0.585 2.253,-0.239 3.52,-4.321 7.041,-8.641 10.555,-12.967 0.639,-0.786 0.609,-1.521 -0.185,-2.223 -2.57,-2.269 -5.12,-4.562 -7.687,-6.836 -0.744,-0.659 -1.546,-0.765 -2.259,0.013 -4.057,4.432 -7.788,9.133 -11.412,13.92 -0.232,0.307 -0.255,0.771 -0.354,1.092 0.217,0.329 0.322,0.625 0.532,0.785 m -3.696,291.336 c -0.799,0.566 -1.509,1.257 -2.359,1.975 2.441,4.075 5.415,7.557 8.206,11.158 1.294,1.67 2.328,3.627 4.242,4.766 2.184,-0.555 3.516,-2.326 5.142,-3.659 1.734,-1.422 3.86,-2.469 4.795,-4.71 -0.854,-2.003 -2.458,-3.47 -3.716,-5.183 -2.2,-2.997 -4.46,-5.951 -6.679,-8.935 -0.61,-0.821 -1.39,-1.077 -2.217,-0.527 -2.5,1.662 -4.964,3.379 -7.414,5.115 m -8.909,-251.148 c 0.909,0.469 1.619,0.267 2.136,-0.64 2.749,-4.823 5.521,-9.634 8.252,-14.468 0.697,-1.233 0.589,-1.659 -0.694,-2.384 -3.324,-1.882 -6.299,-4.374 -9.81,-5.857 -2.578,3.009 -7.651,11.851 -10.281,17.974 3.582,1.853 6.988,3.617 10.397,5.375 m -25.834,33.212 c 3.512,1.591 7.234,2.575 10.926,3.637 0.124,0.035 0.276,-0.031 0.573,-0.072 0.207,-0.19 0.587,-0.42 0.795,-0.756 0.296,-0.478 0.488,-1.026 0.686,-1.559 1.743,-4.674 3.483,-9.351 5.213,-14.031 0.502,-1.361 0.393,-1.779 -0.918,-2.361 -3.127,-1.388 -6.286,-2.704 -9.443,-4.024 -0.925,-0.386 -1.684,-0.132 -2.085,0.834 -2.295,5.533 -4.457,11.116 -6.217,16.846 -0.186,0.604 -0.085,1.235 0.47,1.486 m -8.478,40.998 c 3.245,0.477 6.494,0.932 9.747,1.347 1.395,0.177 1.852,-0.145 2.107,-1.476 1.046,-5.463 2.049,-10.934 3.088,-16.398 0.164,-0.865 -0.193,-1.43 -0.962,-1.615 -3.87,-0.93 -7.754,-1.807 -11.606,-2.696 -0.339,0.548 -0.687,0.883 -0.763,1.27 -1.111,5.74 -2.215,11.481 -3.253,17.235 -0.295,1.635 0.091,2.105 1.642,2.333 m -2.605,41.439 c 3.146,-0.053 6.292,-0.156 9.438,-0.256 0.423,-0.014 0.844,-0.133 1.034,-0.165 0.855,-0.233 1.139,-0.701 1.271,-1.287 0.062,-0.278 0.116,-0.565 0.119,-0.848 0.069,-5.293 0.137,-10.585 0.188,-15.878 0.014,-1.493 -0.153,-1.699 -1.675,-1.812 -3.426,-0.253 -6.855,-0.444 -10.282,-0.684 -1.126,-0.078 -1.565,0.542 -1.588,1.523 -0.137,5.862 -0.275,11.726 -0.347,17.59 -0.017,1.373 0.519,1.839 1.842,1.817 m 11.337,40.01 c -0.006,-0.039 -0.013,-0.078 -0.019,-0.117 0.276,-0.069 0.551,-0.145 0.829,-0.208 1.096,-0.25 2.474,-0.172 3.223,-0.822 1.068,-0.926 0.24,-2.453 0.095,-3.657 -0.512,-4.23 -1.228,-8.435 -1.873,-12.648 -0.065,-0.421 -0.159,-0.84 -0.271,-1.252 -0.351,-1.292 -0.775,-1.71 -2.086,-1.634 -2.125,0.122 -4.244,0.37 -6.364,0.584 -0.565,0.057 -1.121,0.206 -1.686,0.273 -3.44,0.408 -3.72,0.668 -3.242,3.812 0.789,5.198 1.657,10.385 2.517,15.572 0.191,1.149 0.617,1.472 1.731,1.299 2.387,-0.369 4.765,-0.798 7.146,-1.202 m 11.778,63.082 c 2.661,5.041 5.305,10.09 7.997,15.114 0.435,0.811 1.151,1.247 2.129,0.69 3.098,-1.763 6.208,-3.503 9.3,-5.275 0.933,-0.534 0.935,-1.385 0.49,-2.213 -1.619,-3.014 -3.301,-5.993 -4.914,-9.009 -0.94,-1.758 -1.738,-3.591 -2.702,-5.335 -0.679,-1.231 -1.263,-1.481 -2.429,-0.959 -2.989,1.34 -5.959,2.728 -8.876,4.215 -1.558,0.794 -1.526,0.987 -0.995,2.772 m 1.889,-25.284 c 1.561,-0.623 1.748,-1.012 1.324,-2.592 -0.184,-0.689 -0.42,-1.365 -0.79,-2.553 -1.838,-3.63 -3.025,-8.051 -4.425,-12.397 -0.276,-0.86 -0.773,-1.625 -1.822,-1.382 -3.332,0.772 -6.747,1.216 -9.962,2.463 -0.929,0.36 -1.347,1.062 -1.081,2.021 0.573,2.063 1.176,4.119 1.829,6.159 1.133,3.536 2.284,7.067 3.488,10.579 0.469,1.367 1.134,1.732 2.231,1.181 2.951,-1.486 6.16,-2.263 9.208,-3.479 m 74.72,-269.903 c -2.433,-3.139 -4.736,-6.395 -7.698,-9.289 -5.211,3.915 -9.947,8.009 -14.413,12.416 -0.958,0.945 -0.949,1.474 0.055,2.552 2.524,2.711 5.096,5.377 7.727,8.143 1.676,-0.649 2.604,-1.965 3.761,-2.949 3.374,-2.865 6.701,-5.786 10.06,-8.669 0.737,-0.632 1.156,-1.367 0.508,-2.204 m 32.623,-23.019 c -1.408,-2.558 -3.106,-5.694 -4.864,-8.795 -0.422,-0.742 -1.18,-0.703 -1.874,-0.335 -1.134,0.602 -2.276,1.195 -3.368,1.869 -3.766,2.323 -7.525,4.658 -11.257,7.034 -1.641,1.044 -1.758,1.543 -0.773,3.077 1.697,2.642 3.419,5.269 5.194,7.859 0.966,1.407 1.545,1.513 2.816,0.727 4.493,-2.775 8.982,-5.556 13.462,-8.353 1.196,-0.746 1.335,-1.214 0.664,-3.083 m 49.563,436.233 c -0.765,-0.191 -1.486,10e-4 -1.737,0.819 -1.175,3.808 -2.547,7.566 -3.254,11.506 0.478,0.291 0.814,0.613 1.207,0.716 5.533,1.452 11.066,2.908 16.617,4.284 1.893,0.469 2.228,0.201 2.651,-1.719 0.675,-3.073 1.323,-6.153 1.923,-9.242 0.294,-1.512 0.047,-1.968 -1.181,-2.282 -5.402,-1.383 -10.814,-2.736 -16.226,-4.082 m 3.772,-466.993 c 0.404,1.517 0.923,3.004 1.329,4.308 0.353,1.749 0.639,3.293 0.983,4.824 0.237,1.051 0.846,1.46 1.857,1.252 2.515,-0.518 5.03,-1.037 7.53,-1.62 2.64,-0.616 5.234,-1.381 7.957,-1.669 2.138,-0.226 2.571,-1.04 2.157,-3.26 -0.549,-2.945 -1.076,-5.895 -1.712,-8.82 -0.306,-1.406 -0.871,-1.775 -2.091,-1.526 -5.451,1.111 -10.903,2.224 -16.334,3.426 -1.988,0.44 -2.233,0.996 -1.676,3.085 m 39.094,-24.161 -0.328,-69.906 v -0.029 c -0.634,0.049 -1.269,0.084 -1.902,0.138 -0.911,0.076 -1.819,0.17 -2.728,0.254 -14.277,1.328 -28.414,3.59 -42.388,6.821 -15.263,3.528 -30.218,8.079 -44.855,13.695 -16.199,6.217 -31.802,13.68 -46.859,22.275 -5.92,3.379 -11.705,7.011 -17.422,10.727 -4.931,3.203 -9.694,6.667 -14.504,10.054 -6.279,4.422 -11.964,9.598 -18.022,14.301 -1.874,1.455 -3.661,3.027 -5.409,4.638 -0.193,0.03 -0.393,0.116 -0.629,0.308 -0.652,0.53 -1.279,1.093 -1.892,1.667 -3.53,3.302 -7.103,6.559 -10.568,9.926 -10.944,10.635 -21.085,21.995 -30.401,34.078 -9.565,12.407 -18.244,25.408 -26,39.031 -8.585,15.079 -15.918,30.744 -22.112,46.937 -2.435,6.366 -4.604,12.844 -6.669,19.342 -1.782,5.604 -3.269,11.302 -4.841,16.971 -2.052,7.401 -3.166,15.007 -4.868,22.486 -0.674,2.964 -1.156,5.984 -1.527,9.003 -0.766,6.246 -1.698,12.468 -2.296,18.74 -0.837,8.78 -1.417,17.57 -1.57,26.381 -0.446,25.62 2.031,50.969 7.389,76.025 2.33,10.897 5.257,21.641 8.678,32.25 8.59,26.643 20.337,51.819 35.186,75.542 2.898,4.629 5.996,9.137 9.079,13.647 8.197,11.994 17.277,23.295 27.053,34.03 12.332,13.543 25.634,26.051 40.033,37.396 8.424,6.636 17.102,12.904 26.106,18.718 11.389,7.353 23.19,13.971 35.405,19.861 10.783,5.2 21.78,9.865 33.07,13.855 2.575,0.911 5.204,1.661 7.752,2.622 4.726,1.782 9.625,2.982 14.428,4.501 0.606,0.192 1.22,0.358 1.833,0.528 2.321,0.643 4.677,1.169 7.029,1.713 0.615,0.143 1.231,0.283 1.844,0.434 0.625,0.174 1.256,0.323 1.883,0.489 6.182,1.635 12.446,2.894 18.739,4.016 3.514,0.627 7.019,1.344 10.558,1.774 2.193,0.267 4.355,0.699 6.545,0.942 3.96,0.439 7.932,0.776 11.894,1.211 1.43,0.157 2.861,0.286 4.292,0.404 l -0.335,-71.4 c -1.547,-0.165 -3.091,-0.345 -4.634,-0.538 -99.685,-12.443 -187.884,-81.746 -219.418,-183.221 -21.179,-67.14 -14.331,-139.752 18.321,-201.146 33.928,-63.791 85.623,-106.695 154.201,-129.321 17.101,-5.142 34.056,-8.645 50.867,-10.535 z m 13.752,511.821 c 0.117,-2.133 0.185,-4.272 0.177,-6.409 -0.005,-1.528 0.953,-3.372 -0.246,-4.505 -1.114,-1.052 -2.999,-0.529 -4.541,-0.676 -4.255,-0.403 -8.518,-0.728 -12.779,-1.066 -1.537,-0.122 -1.896,0.073 -2.082,1.388 -0.462,3.246 -0.849,6.502 -1.247,9.755 -0.051,0.416 0.014,0.847 0.028,1.352 0.285,0.248 0.558,0.593 0.913,0.763 0.375,0.178 0.826,0.229 1.25,0.266 5.394,0.468 10.786,0.96 16.186,1.362 1.771,0.131 2.238,-0.368 2.341,-2.23"
                 style="fill:#00ffff;fill-opacity:1;fill-rule:nonzero;stroke:none"
                 id="path640"
                 inkscape:connector-curvature="0" />
            </g>
            <g
               style="fill:#00ffff"
               id="g642"
               transform="translate(321.3706,609.0632)">
              <path
                 d="m 0,0 c 0.076,7.487 -5.766,19.082 -12.011,21.783 -15.216,6.582 -19.999,16.301 -18.609,31.565 0.742,8.141 0.135,16.405 0.131,24.613 -0.016,34.343 -2.156,37.284 -35.1,49.023 -1.92,0.684 -3.489,2.353 -6.647,4.561 2.918,3.111 3.907,5.182 5.187,5.381 33.383,5.192 37.763,22.019 36.602,51.332 -0.279,7.024 0.572,14.135 -0.164,21.093 -1.753,16.563 2.969,27.78 20.111,34.14 5.454,2.023 10.762,12.691 10.554,19.225 -0.181,5.644 -7.242,13.99 -13.06,16.039 -29.263,10.306 -62.289,-13.229 -63.451,-44.261 -0.46,-12.296 -0.829,-24.676 0.063,-36.923 1.561,-21.43 -5.637,-35.531 -27.189,-43.259 -6.609,-2.37 -13.871,-13.867 -13.771,-21.086 0.111,-8.076 6.479,-20.606 13.215,-23.212 21.793,-8.434 29.91,-22.602 27.711,-44.836 -0.803,-8.129 -0.137,-16.404 -0.127,-24.613 0.05,-39.479 15.919,-55.574 55.101,-56.266 C -9.97,-15.904 -0.114,-11.249 0,0"
                 style="fill:#00ffff;fill-opacity:1;fill-rule:nonzero;stroke:none"
                 id="path644"
                 inkscape:connector-curvature="0" />
            </g>
            <g
               style="fill:#00ffff"
               id="g646"
               transform="translate(502.8877,874.2697)">
              <path
                 d="m 0,0 c -1.575,-6.283 3.714,-19.542 8.906,-21.339 20.326,-7.031 22.421,-21.457 21.335,-39.107 -0.611,-9.938 0.162,-19.953 -0.089,-29.923 -0.483,-19.13 8.172,-31.048 26.907,-35.705 4.588,-1.141 8.927,-3.292 18.548,-6.935 -8.911,-3.606 -12.695,-5.423 -16.655,-6.693 -23.576,-7.562 -28.474,-14.136 -28.797,-39.435 -0.127,-9.976 -0.581,-19.992 0.098,-29.924 1.107,-16.216 -2.623,-28.068 -19.95,-34.535 -5.559,-2.074 -10.488,-12.328 -11.034,-19.211 -0.414,-5.193 5.365,-13.526 10.541,-16.058 22.664,-11.088 60.804,9.403 64.106,34.558 2.201,16.767 2.403,33.931 1.951,50.876 -0.49,18.332 6.568,30.527 24.142,36.073 11.724,3.7 16.601,11.389 16.681,23.656 0.084,12.957 -4.856,20.836 -17.531,24.762 -16.781,5.198 -24.111,17.208 -23.178,34.855 0.62,11.705 0.303,23.474 0.062,35.208 C 75.269,-1.213 55.756,17.552 18.233,14.485 11.46,13.932 1.546,6.168 0,0"
                 style="fill:#00ffff;fill-opacity:1;fill-rule:nonzero;stroke:none"
                 id="path648"
                 inkscape:connector-curvature="0" />
            </g>
            <g
               style="fill:#00ffff"
               id="g650"
               transform="translate(739.2207,642.8796)">
              <path
                 d="m 0,0 c -28.948,-92.239 -93.299,-163.369 -173.286,-203.385 -0.81,-0.404 -1.611,-0.823 -2.424,-1.219 -0.395,-0.194 -0.796,-0.377 -1.192,-0.568 -3.102,-1.501 -6.225,-2.956 -9.369,-4.365 -0.044,-0.019 -0.089,-0.038 -0.133,-0.058 -2.367,-1.062 -4.75,-2.089 -7.141,-3.098 -7.133,-2.998 -14.375,-5.757 -21.734,-8.26 -22.61,-7.689 -45.732,-13.089 -69.434,-16.048 -11.813,-1.475 -23.656,-2.346 -35.532,-2.59 -0.015,0 -0.03,0 -0.045,-0.001 -35.784,-0.639 -72.254,4.351 -108.229,15.606 -28.296,8.853 -54.586,21.04 -78.594,35.985 -2.757,1.729 -5.498,3.481 -8.206,5.288 -0.013,0.008 -0.026,0.017 -0.039,0.025 -3.081,2.058 -6.133,4.164 -9.154,6.319 -9.389,6.7 -18.375,13.908 -27.059,21.504 -10.113,8.847 -19.619,18.298 -28.623,28.261 -3.46,3.828 -6.824,7.737 -10.099,11.719 -0.093,0.112 -0.184,0.226 -0.276,0.339 -1.389,1.699 -2.768,3.405 -4.122,5.129 -1.118,1.414 -2.208,2.849 -3.307,4.279 -65.199,85.711 -88.996,200.648 -54.679,310.022 46.49,148.171 186.433,243.507 335.595,239.523 30.819,-0.823 62.031,-5.883 92.895,-15.596 C -46.095,373.5 57.17,182.163 0,0 m -7.492,269.609 c -46.808,86.716 -116.617,146.302 -210.646,176.188 -32.841,10.438 -66.064,15.87 -98.859,16.747 -157.118,4.201 -304.431,-96.243 -353.049,-252.697 -28.905,-91.634 -19.559,-190.733 25.004,-274.523 46.305,-87.063 116.858,-145.619 210.453,-176.499 38.614,-11.61 76.686,-17.142 114.214,-16.604 54.82,0.787 108.481,14.53 160.985,41.219 86.969,46.833 145.859,117.196 176.796,210.982 28.349,95.045 20.24,186.791 -24.898,275.187"
                 style="fill:#00ffff;fill-opacity:1;fill-rule:nonzero;stroke:none"
                 id="path652"
                 inkscape:connector-curvature="0" />
            </g>
            <g
               style="fill:#00ffff"
               id="g654"
               transform="translate(184.0796,622.8181)">
              <path
                 d="m 0,0 c -32.652,61.394 -39.5,134.005 -18.321,201.146 31.533,101.475 119.733,170.778 219.418,183.221 1.542,0.192 3.087,0.372 4.634,0.537 l 0.335,71.4 c -1.432,-0.117 -2.863,-0.246 -4.293,-0.404 -3.961,-0.434 -7.933,-0.771 -11.894,-1.21 -2.189,-0.244 -4.352,-0.676 -6.544,-0.942 -3.539,-0.431 -7.044,-1.147 -10.558,-1.774 -6.293,-1.123 -12.558,-2.382 -18.739,-4.016 -0.628,-0.166 -1.259,-0.315 -1.884,-0.49 -0.612,-0.15 -1.228,-0.291 -1.843,-0.433 -2.352,-0.544 -4.709,-1.071 -7.029,-1.713 -0.614,-0.17 -1.227,-0.336 -1.834,-0.528 -4.802,-1.52 -9.702,-2.72 -14.427,-4.501 -2.549,-0.961 -5.177,-1.712 -7.753,-2.623 -11.29,-3.989 -22.287,-8.655 -33.069,-13.855 -12.215,-5.89 -24.016,-12.507 -35.405,-19.86 -9.005,-5.814 -17.682,-12.082 -26.106,-18.719 -14.399,-11.344 -27.701,-23.853 -40.033,-37.395 -9.776,-10.735 -18.856,-22.037 -27.054,-34.03 -3.083,-4.511 -6.18,-9.018 -9.078,-13.647 -14.849,-23.724 -26.596,-48.899 -35.187,-75.542 -3.42,-10.609 -6.348,-21.353 -8.678,-32.25 -5.357,-25.057 -7.835,-50.406 -7.389,-76.025 0.153,-8.812 0.734,-17.602 1.571,-26.382 0.598,-6.271 1.529,-12.494 2.296,-18.739 0.37,-3.019 0.852,-6.039 1.527,-9.003 1.702,-7.479 2.816,-15.086 4.868,-22.487 1.571,-5.669 3.059,-11.367 4.84,-16.97 2.066,-6.499 4.235,-12.976 6.67,-19.343 6.194,-16.193 13.526,-31.857 22.111,-46.936 7.757,-13.623 16.436,-26.624 26.001,-39.031 9.315,-12.083 19.457,-23.444 30.4,-34.079 3.466,-3.367 7.038,-6.624 10.568,-9.925 0.614,-0.575 1.24,-1.137 1.892,-1.667 0.237,-0.193 0.437,-0.279 0.63,-0.308 1.748,-1.611 3.535,-3.184 5.408,-4.639 6.059,-4.703 11.744,-9.879 18.023,-14.3 4.809,-3.387 9.573,-6.851 14.503,-10.054 5.718,-3.716 11.503,-7.349 17.423,-10.728 15.057,-8.594 30.659,-16.057 46.859,-22.274 14.636,-5.616 29.591,-10.167 44.854,-13.695 13.975,-3.232 28.112,-5.494 42.389,-6.822 0.909,-0.084 1.816,-0.177 2.727,-0.254 0.633,-0.053 1.269,-0.088 1.902,-0.137 v 0.029 l 0.329,69.905 0.007,1.636 c -16.811,1.89 -33.766,5.393 -50.867,10.534 C 85.623,-106.696 33.928,-63.792 0,0"
                 style="fill:#00ffff;fill-opacity:1;fill-rule:nonzero;stroke:none"
                 id="path656"
                 inkscape:connector-curvature="0" />
            </g>
            <g
               style="fill:#00ffff"
               id="g658"
               transform="translate(524.3291,536.5549)">
              <path
                 d="m 0,0 c -4.985,-2.51 -9.979,-5.001 -14.96,-7.519 -0.361,-0.182 -0.639,-0.53 -0.909,-0.762 -0.019,-0.365 -0.131,-0.686 -0.031,-0.914 1.491,-3.405 2.985,-6.808 4.539,-10.184 0.347,-0.756 1.095,-0.84 1.838,-0.53 5.555,2.313 10.914,5.028 16.176,7.937 0.735,0.407 0.902,1.085 0.51,1.824 C 5.488,-6.986 3.793,-3.836 2.109,-0.68 1.622,0.233 0.952,0.479 0,0"
                 style="fill:#00ffff;fill-opacity:1;fill-rule:nonzero;stroke:none"
                 id="path660"
                 inkscape:connector-curvature="0" />
            </g>
            <g
               style="fill:#00ffff"
               id="g662"
               transform="translate(245.6411,912.739)">
              <path
                 d="m 0,0 c 3.852,3.604 7.698,7.215 11.542,10.829 0.308,0.29 0.573,0.627 0.921,1.01 -0.084,0.364 -0.052,0.863 -0.284,1.141 C 9.802,15.826 7.414,18.663 4.957,21.438 4.252,22.234 3.358,21.874 2.687,21.25 -1.594,17.27 -5.855,13.271 -10.118,9.271 -10.881,8.555 -10.875,7.763 -10.152,7.042 -7.729,4.625 -5.301,2.212 -2.835,-0.161 -1.682,-1.271 -1.301,-1.218 0,0"
                 style="fill:#00ffff;fill-opacity:1;fill-rule:nonzero;stroke:none"
                 id="path664"
                 inkscape:connector-curvature="0" />
            </g>
            <g
               style="fill:#00ffff"
               id="g666"
               transform="translate(309.606,958.2106)">
              <path
                 d="m 0,0 c 5.09,2.277 10.191,4.531 15.278,6.816 0.361,0.163 0.633,0.521 0.977,0.814 -0.087,0.459 -0.103,0.891 -0.251,1.271 -1.24,3.201 -2.487,6.398 -3.77,9.582 -0.514,1.278 -1.01,1.492 -2.348,0.904 C 4.517,17.029 -0.837,14.637 -6.185,12.23 -7.257,11.748 -7.475,11.201 -6.978,10.192 -5.396,6.985 -3.768,3.8 -2.149,0.611 -1.66,-0.353 -0.915,-0.409 0,0"
                 style="fill:#00ffff;fill-opacity:1;fill-rule:nonzero;stroke:none"
                 id="path668"
                 inkscape:connector-curvature="0" />
            </g>
            <g
               style="fill:#00ffff"
               id="g670"
               transform="translate(282.5845,547.6838)">
              <path
                 d="m 0,0 c -1.271,0.786 -1.851,0.68 -2.816,-0.728 -1.775,-2.589 -3.497,-5.216 -5.194,-7.858 -0.986,-1.534 -0.868,-2.033 0.772,-3.077 3.733,-2.376 7.492,-4.711 11.258,-7.034 1.091,-0.674 2.234,-1.267 3.368,-1.869 0.694,-0.369 1.452,-0.408 1.873,0.335 1.759,3.101 3.456,6.237 4.865,8.794 0.67,1.87 0.532,2.337 -0.665,3.083 C 8.982,-5.557 4.493,-2.775 0,0"
                 style="fill:#00ffff;fill-opacity:1;fill-rule:nonzero;stroke:none"
                 id="path672"
                 inkscape:connector-curvature="0" />
            </g>
            <g
               style="fill:#00ffff"
               id="g674"
               transform="translate(576.6768,936.1647)">
              <path
                 d="m 0,0 c -3.192,2.674 -6.219,5.249 -9.29,7.768 -1.762,1.445 -3.59,2.81 -5.403,4.19 -0.756,0.575 -1.58,0.753 -2.243,-0.104 -2.425,-3.136 -4.932,-6.217 -7.071,-9.86 5.043,-4.057 9.997,-8.043 15.07,-12.124 C -5.585,-7.026 -2.709,-3.759 0,0"
                 style="fill:#00ffff;fill-opacity:1;fill-rule:nonzero;stroke:none"
                 id="path676"
                 inkscape:connector-curvature="0" />
            </g>
            <g
               style="fill:#00ffff"
               id="g678"
               transform="translate(452.9834,499.8713)">
              <path
                 d="m 0,0 c -0.514,3.386 -1.063,6.766 -1.654,10.139 -0.225,1.282 -0.696,1.551 -2.142,1.363 -5.786,-0.753 -11.569,-1.525 -17.679,-2.334 0.006,-2.957 0.399,-5.901 0.586,-8.852 0.342,-5.39 0.383,-4.595 4.987,-4.099 4.818,0.518 9.626,1.141 14.429,1.784 C -0.024,-1.806 0.218,-1.432 0,0"
                 style="fill:#00ffff;fill-opacity:1;fill-rule:nonzero;stroke:none"
                 id="path680"
                 inkscape:connector-curvature="0" />
            </g>
            <g
               style="fill:#00ffff"
               id="g682"
               transform="translate(594.5527,917.611)">
              <path
                 d="m 0,0 c -0.949,1.063 -1.57,1.068 -2.534,0.167 -2.392,-2.237 -4.743,-4.516 -7.098,-6.792 -0.301,-0.291 -0.522,-0.663 -0.71,-0.906 -0.313,-0.903 0.09,-1.485 0.57,-2.026 3.586,-4.05 7.188,-8.088 10.761,-12.149 0.677,-0.77 1.355,-0.977 2.183,-0.309 2.772,2.234 5.533,4.482 8.313,6.707 0.893,0.714 0.726,1.44 0.087,2.169 C 7.726,-8.75 3.889,-4.352 0,0"
                 style="fill:#00ffff;fill-opacity:1;fill-rule:nonzero;stroke:none"
                 id="path684"
                 inkscape:connector-curvature="0" />
            </g>
            <g
               style="fill:#00ffff"
               id="g686"
               transform="translate(219.8203,882.2726)">
              <path
                 d="m 0,0 c 2.219,2.984 4.479,5.938 6.679,8.935 1.258,1.713 2.862,3.18 3.716,5.183 C 9.459,16.359 7.333,17.406 5.6,18.828 3.974,20.161 2.642,21.932 0.458,22.487 -1.456,21.348 -2.49,19.391 -3.784,17.721 -6.575,14.12 -9.549,10.638 -11.99,6.562 -11.14,5.845 -10.43,5.154 -9.631,4.588 -7.182,2.852 -4.717,1.135 -2.217,-0.527 -1.39,-1.077 -0.61,-0.821 0,0"
                 style="fill:#00ffff;fill-opacity:1;fill-rule:nonzero;stroke:none"
                 id="path688"
                 inkscape:connector-curvature="0" />
            </g>
            <g
               style="fill:#00ffff"
               id="g690"
               transform="translate(168.5796,690.3547)">
              <path
                 d="m 0,0 c 0.075,-0.387 0.423,-0.722 0.762,-1.271 3.853,0.89 7.736,1.767 11.606,2.697 0.77,0.185 1.126,0.75 0.962,1.615 C 12.292,8.505 11.289,13.976 10.242,19.438 9.987,20.77 9.531,21.092 8.136,20.915 4.882,20.5 1.634,20.045 -1.611,19.568 -3.163,19.34 -3.549,18.87 -3.254,17.235 -2.216,11.481 -1.112,5.74 0,0"
                 style="fill:#00ffff;fill-opacity:1;fill-rule:nonzero;stroke:none"
                 id="path692"
                 inkscape:connector-curvature="0" />
            </g>
            <g
               style="fill:#00ffff"
               id="g694"
               transform="translate(557.4941,557.7863)">
              <path
                 d="m 0,0 c -4.535,-3.201 -9.066,-6.408 -13.583,-9.635 -0.318,-0.226 -0.511,-0.629 -0.773,-0.964 0.141,-0.458 0.192,-0.902 0.403,-1.248 0.667,-1.092 1.328,-2.199 2.111,-3.208 1.625,-2.091 2.456,-4.771 4.72,-6.386 2.433,0.919 4.367,2.644 6.466,4.082 3.052,2.089 5.988,4.349 8.936,6.587 1.098,0.833 1.165,1.365 0.298,2.503 -2.07,2.717 -4.198,5.39 -6.323,8.065 C 1.601,0.619 0.791,0.559 0,0"
                 style="fill:#00ffff;fill-opacity:1;fill-rule:nonzero;stroke:none"
                 id="path696"
                 inkscape:connector-curvature="0" />
            </g>
            <g
               style="fill:#00ffff"
               id="g698"
               transform="translate(586.376,584.2053)">
              <path
                 d="m 0,0 c -3.827,-3.821 -7.628,-7.67 -11.442,-11.505 -0.783,-0.786 -0.539,-1.574 0.078,-2.257 2.195,-2.427 4.423,-4.825 6.655,-7.219 0.284,-0.305 0.666,-0.52 0.923,-0.716 0.691,-0.236 1.235,-0.105 1.674,0.302 1.565,1.451 3.145,2.888 4.654,4.397 2.517,2.515 5.014,5.052 7.458,7.637 1.146,1.212 1.167,1.909 0.112,2.928 C 7.759,-4.157 5.362,-1.924 2.931,0.269 1.849,1.245 1.159,1.158 0,0"
                 style="fill:#00ffff;fill-opacity:1;fill-rule:nonzero;stroke:none"
                 id="path700"
                 inkscape:connector-curvature="0" />
            </g>
            <g
               style="fill:#00ffff"
               id="g702"
               transform="translate(620.6016,885.0319)">
              <path
                 d="M 0,0 C -0.231,0.337 -0.604,0.579 -0.875,0.833 -1.226,0.788 -1.56,0.841 -1.767,0.704 c -3.207,-2.124 -6.407,-4.26 -9.583,-6.43 -0.555,-0.38 -0.468,-1.033 -0.159,-1.536 2.986,-4.862 5.989,-9.714 9.002,-14.559 0.529,-0.85 1.248,-1.073 2.171,-0.543 2.97,1.704 5.959,3.376 8.925,5.087 1.287,0.742 1.407,1.049 0.659,2.373 C 6.369,-9.811 3.315,-4.823 0,0"
                 style="fill:#00ffff;fill-opacity:1;fill-rule:nonzero;stroke:none"
                 id="path704"
                 inkscape:connector-curvature="0" />
            </g>
            <g
               style="fill:#00ffff"
               id="g706"
               transform="translate(162.521,749.5446)">
              <path
                 d="m 0,0 c 0.072,-5.864 0.21,-11.728 0.347,-17.59 0.023,-0.981 0.463,-1.601 1.589,-1.523 3.426,0.24 6.856,0.431 10.281,0.684 1.522,0.113 1.689,0.319 1.675,1.812 -0.051,5.293 -0.119,10.585 -0.187,15.878 -0.004,0.283 -0.058,0.57 -0.12,0.848 -0.132,0.586 -0.416,1.054 -1.271,1.287 -0.19,0.032 -0.61,0.151 -1.034,0.165 C 8.134,1.661 4.988,1.764 1.842,1.817 0.52,1.839 -0.017,1.373 0,0"
                 style="fill:#00ffff;fill-opacity:1;fill-rule:nonzero;stroke:none"
                 id="path708"
                 inkscape:connector-curvature="0" />
            </g>
            <g
               style="fill:#00ffff"
               id="g710"
               transform="translate(275.9741,938.383)">
              <path
                 d="m 0,0 c 4.306,2.785 8.591,5.602 12.869,8.43 1.385,0.916 1.603,1.513 0.847,2.819 -1.711,2.959 -3.509,5.868 -5.279,8.793 C 7.849,21.014 7.006,20.88 6.224,20.405 1.23,17.371 -3.68,14.209 -8.388,10.744 -8.717,10.502 -8.958,10.14 -9.148,9.934 -9.324,9.172 -9.04,8.672 -8.712,8.213 -6.892,5.662 -5.079,3.104 -3.213,0.585 -2.112,-0.901 -1.554,-1.005 0,0"
                 style="fill:#00ffff;fill-opacity:1;fill-rule:nonzero;stroke:none"
                 id="path712"
                 inkscape:connector-curvature="0" />
            </g>
            <g
               style="fill:#00ffff"
               id="g714"
               transform="translate(411.6265,506.5803)">
              <path
                 d="m 0,0 c 0.028,1.613 -0.299,1.876 -2.061,1.952 -5.137,0.221 -10.288,0.182 -15.407,0.788 -0.417,0.049 -0.853,-0.052 -1.28,-0.093 -0.655,-0.062 -1.092,-0.476 -1.149,-1.071 -0.332,-3.411 -0.65,-6.825 -0.883,-10.244 -0.107,-1.57 0.288,-2.049 1.933,-2.186 6.109,-0.509 12.224,-0.937 18.53,-0.744 C 0.327,-7.662 -0.066,-3.82 0,0"
                 style="fill:#00ffff;fill-opacity:1;fill-rule:nonzero;stroke:none"
                 id="path716"
                 inkscape:connector-curvature="0" />
            </g>
            <g
               style="fill:#00ffff"
               id="g718"
               transform="translate(443.083,979.3146)">
              <path
                 d="m 0,0 c 1.545,-0.129 3.094,-0.204 4.876,-0.318 0.49,3.841 1.024,7.5 1.398,11.174 0.211,2.07 -0.043,2.286 -1.948,2.48 -3.981,0.405 -7.96,0.878 -11.952,1.115 -2.105,0.126 -4.249,0.679 -6.435,-0.021 -0.102,-0.405 -0.275,-0.799 -0.292,-1.199 -0.142,-3.427 -0.259,-6.856 -0.377,-10.284 -0.037,-1.033 0.535,-1.597 1.497,-1.75 0.843,-0.134 1.702,-0.181 2.555,-0.257 C -7.119,0.624 -3.561,0.299 0,0"
                 style="fill:#00ffff;fill-opacity:1;fill-rule:nonzero;stroke:none"
                 id="path720"
                 inkscape:connector-curvature="0" />
            </g>
            <g
               style="fill:#00ffff"
               id="g722"
               transform="translate(654.9844,809.0866)">
              <path
                 d="m 0,0 c -0.23,0.993 -0.868,1.48 -1.868,1.218 -3.443,-0.898 -6.876,-1.832 -10.307,-2.774 -1,-0.274 -1.276,-0.928 -1.02,-1.946 0.836,-3.311 1.646,-6.631 2.409,-9.96 0.569,-2.48 1.051,-4.98 1.609,-7.655 4.146,0.375 7.989,1.385 11.873,2.112 1.093,0.205 1.449,0.908 1.127,2.361 C 2.593,-11.086 1.284,-5.546 0,0"
                 style="fill:#00ffff;fill-opacity:1;fill-rule:nonzero;stroke:none"
                 id="path724"
                 inkscape:connector-curvature="0" />
            </g>
            <g
               style="fill:#00ffff"
               id="g726"
               transform="translate(601.7773,599.9582)">
              <path
                 d="m 0,0 c 2.693,-2.111 5.4,-4.204 8.126,-6.272 1.282,-0.972 1.693,-0.923 2.744,0.543 3.071,4.288 6.09,8.613 9.117,12.931 0.325,0.464 0.621,0.96 0.846,1.479 0.31,0.715 0.23,1.401 -0.478,1.868 -2.855,1.881 -5.716,3.75 -8.014,5.256 -1.829,0.83 -2.363,0.763 -3.18,-0.368 C 5.993,11.043 2.886,6.607 -0.276,2.21 -0.912,1.326 -0.775,0.608 0,0"
                 style="fill:#00ffff;fill-opacity:1;fill-rule:nonzero;stroke:none"
                 id="path728"
                 inkscape:connector-curvature="0" />
            </g>
            <g
               style="fill:#00ffff"
               id="g730"
               transform="translate(660.5508,708.9147)">
              <path
                 d="M 0,0 C 0.048,0.281 0.061,0.569 0.089,0.854 0.154,0.846 0.221,0.839 0.286,0.832 c 0.569,5.256 1.17,10.51 1.691,15.771 0.179,1.819 -0.3,2.331 -2.113,2.461 -3.137,0.226 -6.279,0.406 -9.422,0.564 -1.442,0.073 -1.975,-0.305 -2.104,-1.496 -0.585,-5.399 -1.151,-10.801 -1.689,-16.206 -0.152,-1.533 0.208,-2 1.832,-2.256 3.106,-0.49 6.223,-0.908 9.339,-1.322 C -0.371,-1.892 -0.304,-1.816 0,0"
                 style="fill:#00ffff;fill-opacity:1;fill-rule:nonzero;stroke:none"
                 id="path732"
                 inkscape:connector-curvature="0" />
            </g>
            <g
               style="fill:#00ffff"
               id="g734"
               transform="translate(197.3486,847.467)">
              <path
                 d="m 0,0 c 1.166,-0.522 1.75,-0.272 2.43,0.959 0.963,1.744 1.762,3.577 2.701,5.334 1.613,3.017 3.295,5.996 4.914,9.009 0.445,0.829 0.443,1.679 -0.49,2.214 -3.092,1.772 -6.202,3.512 -9.299,5.275 -0.979,0.556 -1.694,0.121 -2.129,-0.69 C -4.565,17.077 -7.21,12.027 -9.87,6.986 -10.401,5.201 -10.433,5.009 -8.875,4.214 -5.958,2.728 -2.989,1.339 0,0"
                 style="fill:#00ffff;fill-opacity:1;fill-rule:nonzero;stroke:none"
                 id="path736"
                 inkscape:connector-curvature="0" />
            </g>
            <g
               style="fill:#00ffff"
               id="g738"
               transform="translate(181.1929,650.5925)">
              <path
                 d="m 0,0 c 0.401,-0.966 1.16,-1.22 2.085,-0.833 3.157,1.319 6.316,2.635 9.443,4.023 1.311,0.582 1.421,1 0.918,2.361 -1.73,4.68 -3.469,9.357 -5.213,14.032 -0.198,0.532 -0.39,1.08 -0.686,1.558 C 6.339,21.478 5.959,21.708 5.752,21.897 5.456,21.938 5.303,22.004 5.18,21.969 1.487,20.907 -2.234,19.923 -5.747,18.333 -6.302,18.082 -6.402,17.45 -6.217,16.846 -4.457,11.116 -2.295,5.533 0,0"
                 style="fill:#00ffff;fill-opacity:1;fill-rule:nonzero;stroke:none"
                 id="path740"
                 inkscape:connector-curvature="0" />
            </g>
            <g
               style="fill:#00ffff"
               id="g742"
               transform="translate(383.1143,993.7492)">
              <path
                 d="m 0,0 c -0.355,-0.17 -0.628,-0.515 -0.913,-0.762 -0.014,-0.506 -0.079,-0.936 -0.028,-1.352 0.398,-3.254 0.785,-6.51 1.247,-9.755 0.186,-1.315 0.545,-1.511 2.082,-1.389 4.261,0.338 8.524,0.663 12.779,1.067 1.542,0.146 3.427,-0.376 4.541,0.675 1.199,1.133 0.241,2.977 0.246,4.505 0.007,2.137 -0.06,4.276 -0.178,6.409 -0.102,1.862 -0.569,2.361 -2.34,2.23 C 12.036,1.227 6.644,0.734 1.25,0.266 0.826,0.229 0.375,0.178 0,0"
                 style="fill:#00ffff;fill-opacity:1;fill-rule:nonzero;stroke:none"
                 id="path744"
                 inkscape:connector-curvature="0" />
            </g>
            <g
               style="fill:#00ffff"
               id="g746"
               transform="translate(225.1191,579.7277)">
              <path
                 d="m 0,0 c 0.713,-0.778 1.515,-0.672 2.259,-0.013 2.567,2.274 5.117,4.567 7.687,6.836 0.794,0.702 0.824,1.437 0.185,2.223 -3.514,4.326 -7.035,8.645 -10.555,12.967 -0.671,0.823 -1.468,0.823 -2.253,0.239 -2.866,-2.133 -5.715,-4.29 -8.557,-6.455 -0.21,-0.16 -0.315,-0.456 -0.532,-0.785 0.099,-0.322 0.122,-0.785 0.354,-1.092 C -7.788,9.133 -4.057,4.432 0,0"
                 style="fill:#00ffff;fill-opacity:1;fill-rule:nonzero;stroke:none"
                 id="path748"
                 inkscape:connector-curvature="0" />
            </g>
            <g
               style="fill:#00ffff"
               id="g750"
               transform="translate(166.8232,791.2746)">
              <path
                 d="m 0,0 c -0.86,-5.187 -1.728,-10.374 -2.518,-15.572 -0.477,-3.144 -0.197,-3.404 3.243,-3.812 0.565,-0.067 1.121,-0.216 1.686,-0.273 2.12,-0.214 4.238,-0.462 6.364,-0.584 1.311,-0.076 1.735,0.342 2.086,1.634 0.112,0.412 0.206,0.831 0.271,1.252 0.645,4.213 1.361,8.418 1.872,12.648 0.146,1.204 0.974,2.731 -0.094,3.657 -0.749,0.65 -2.127,0.572 -3.223,0.822 -0.278,0.063 -0.553,0.139 -0.83,0.208 0.007,0.039 0.014,0.078 0.02,0.117 C 6.496,0.501 4.118,0.93 1.731,1.299 0.617,1.472 0.191,1.149 0,0"
                 style="fill:#00ffff;fill-opacity:1;fill-rule:nonzero;stroke:none"
                 id="path752"
                 inkscape:connector-curvature="0" />
            </g>
            <g
               style="fill:#00ffff"
               id="g754"
               transform="translate(530.6533,951.5197)">
              <path
                 d="m 0,0 c 1.171,-0.649 1.845,-0.54 2.519,0.544 1.578,2.539 3.108,5.107 4.632,7.679 1.423,2.402 1.395,2.47 -0.928,3.91 -0.484,0.3 -0.952,0.627 -1.448,0.907 -4.212,2.376 -8.429,4.743 -11.903,6.696 -2.065,0.811 -2.598,0.686 -3.238,-0.51 -1.476,-2.759 -2.94,-5.527 -4.305,-8.342 -0.814,-1.676 -0.56,-2.401 0.875,-3.204 C -9.204,5.107 -4.604,2.552 0,0"
                 style="fill:#00ffff;fill-opacity:1;fill-rule:nonzero;stroke:none"
                 id="path756"
                 inkscape:connector-curvature="0" />
            </g>
            <g
               style="fill:#00ffff"
               id="g758"
               transform="translate(317.1724,513.9279)">
              <path
                 d="m 0,0 c 3.425,-1.389 6.859,-2.759 10.33,-4.026 1.582,-0.578 2.061,-0.303 2.605,1.209 0.578,1.605 1.032,3.254 1.541,4.885 0.061,-0.019 0.122,-0.038 0.184,-0.057 0.423,1.359 0.878,2.71 1.263,4.079 0.52,1.843 0.328,2.177 -1.421,2.89 C 9.635,10.966 4.769,12.956 -0.094,14.951 -1.14,15.38 -1.793,15.229 -2.207,14.303 -3.538,11.318 -4.888,8.34 -6.114,5.311 -6.871,3.44 -6.729,3.154 -5.037,2.299 -3.39,1.468 -1.709,0.693 0,0"
                 style="fill:#00ffff;fill-opacity:1;fill-rule:nonzero;stroke:none"
                 id="path760"
                 inkscape:connector-curvature="0" />
            </g>
            <g
               style="fill:#00ffff"
               id="g762"
               transform="translate(470.6377,515.0617)">
              <path
                 d="m 0,0 c 0.092,-0.497 0.147,-0.923 0.252,-1.336 0.769,-3.044 1.516,-6.093 2.334,-9.124 0.515,-1.908 0.842,-2.147 2.701,-1.624 5.219,1.471 10.413,3.03 15.613,4.568 0.407,0.12 0.799,0.311 1.17,0.519 0.545,0.305 0.885,0.846 0.698,1.418 C 21.657,-2.19 20.524,1.193 19.313,4.547 18.896,5.702 18.171,5.964 16.892,5.578 13.748,4.632 10.626,3.616 7.482,2.67 5.296,2.012 3.082,1.446 0.897,0.781 0.546,0.674 0.287,0.26 0,0"
                 style="fill:#00ffff;fill-opacity:1;fill-rule:nonzero;stroke:none"
                 id="path764"
                 inkscape:connector-curvature="0" />
            </g>
            <g
               style="fill:#00ffff"
               id="g766"
               transform="translate(253.5195,570.1398)">
              <path
                 d="m 0,0 c -1.157,0.983 -2.085,2.3 -3.762,2.949 -2.631,-2.766 -5.202,-5.432 -7.726,-8.143 -1.004,-1.078 -1.013,-1.607 -0.055,-2.552 4.465,-4.407 9.201,-8.501 14.413,-12.416 2.962,2.893 5.265,6.15 7.697,9.289 0.648,0.837 0.23,1.572 -0.507,2.204 C 6.7,-5.786 3.374,-2.865 0,0"
                 style="fill:#00ffff;fill-opacity:1;fill-rule:nonzero;stroke:none"
                 id="path768"
                 inkscape:connector-curvature="0" />
            </g>
            <g
               style="fill:#00ffff"
               id="g770"
               transform="translate(363.6802,978.8449)">
              <path
                 d="m 0,0 c -0.6,3.088 -1.248,6.168 -1.923,9.242 -0.423,1.92 -0.758,2.188 -2.651,1.719 -5.551,-1.377 -11.084,-2.833 -16.617,-4.285 -0.393,-0.103 -0.729,-0.425 -1.207,-0.715 0.707,-3.94 2.079,-7.698 3.253,-11.506 0.252,-0.818 0.973,-1.01 1.738,-0.819 5.412,1.346 10.824,2.698 16.226,4.081 C 0.047,-1.968 0.293,-1.512 0,0"
                 style="fill:#00ffff;fill-opacity:1;fill-rule:nonzero;stroke:none"
                 id="path772"
                 inkscape:connector-curvature="0" />
            </g>
            <g
               style="fill:#00ffff"
               id="g774"
               transform="translate(640.8184,848.8039)">
              <path
                 d="M 0,0 C -0.147,0.353 -0.559,0.595 -0.791,0.832 -1.044,0.829 -1.202,0.873 -1.316,0.82 c -3.485,-1.604 -6.975,-3.196 -10.438,-4.846 -0.75,-0.357 -0.841,-1.128 -0.542,-1.844 0.768,-1.838 1.625,-3.638 2.379,-5.481 1.347,-3.293 2.654,-6.602 3.954,-9.914 0.357,-0.907 0.827,-1.471 1.903,-1.07 3.334,1.241 6.677,2.456 10.005,3.712 0.947,0.358 1.285,1.088 0.89,2.052 C 4.569,-11.042 2.3,-5.515 0,0"
                 style="fill:#00ffff;fill-opacity:1;fill-rule:nonzero;stroke:none"
                 id="path776"
                 inkscape:connector-curvature="0" />
            </g>
            <g
               style="fill:#00ffff"
               id="g778"
               transform="translate(663.2168,751.6931)">
              <path
                 d="m 0,0 c -0.101,2.992 -0.198,5.985 -0.368,8.975 -0.139,2.419 -0.38,4.833 -0.575,7.25 -0.082,1.01 -0.596,1.594 -1.644,1.502 -3.409,-0.3 -6.819,-0.606 -10.223,-0.964 -1.362,-0.143 -1.758,-0.61 -1.684,-1.944 0.15,-2.704 0.402,-5.403 0.553,-8.108 0.159,-2.847 0.243,-5.699 0.375,-8.548 0.039,-0.831 0.526,-1.354 1.341,-1.347 3.565,0.032 7.128,0.117 10.692,0.18 0.639,0.011 1.046,0.359 1.437,1.095 C -0.068,-1.41 0.023,-0.703 0,0"
                 style="fill:#00ffff;fill-opacity:1;fill-rule:nonzero;stroke:none"
                 id="path780"
                 inkscape:connector-curvature="0" />
            </g>
            <g
               style="fill:#00ffff"
               id="g782"
               transform="translate(632.5918,651.2375)">
              <path
                 d="m 0,0 c -1.488,0.803 -2.385,0.392 -3.097,-1.149 -1.257,-2.722 -2.432,-5.481 -3.686,-8.204 -0.835,-1.814 -1.795,-3.572 -2.61,-5.396 -0.922,-2.068 -0.878,-2.326 1.021,-3.425 2.593,-1.501 5.254,-2.886 7.906,-4.281 1.606,-0.845 1.847,-0.863 2.68,0.741 2.432,4.683 4.74,9.432 6.665,13.289 0.379,1.213 0.463,1.486 0.549,1.758 0.589,1.885 0.337,2.54 -1.534,3.333 C 5.265,-2.219 2.534,-1.367 0,0"
                 style="fill:#00ffff;fill-opacity:1;fill-rule:nonzero;stroke:none"
                 id="path784"
                 inkscape:connector-curvature="0" />
            </g>
            <g
               style="fill:#00ffff"
               id="g786"
               transform="translate(650.9873,668.0646)">
              <path
                 d="m 0,0 c 0.902,2.702 1.735,5.428 2.554,8.157 0.777,2.593 1.558,5.187 2.225,7.81 0.451,1.778 0.116,2.431 -1.583,2.878 -3.024,0.796 -6.088,1.447 -9.142,2.124 -1.566,0.347 -1.903,0.143 -2.455,-1.543 -0.799,-2.437 -1.536,-4.893 -2.299,-7.342 0.066,-0.02 0.132,-0.041 0.197,-0.061 -0.806,-2.585 -1.645,-5.159 -2.402,-7.758 -0.385,-1.323 -0.126,-1.843 1.172,-2.282 3.103,-1.049 6.225,-2.048 9.36,-3.004 C -1.005,-1.437 -0.394,-1.177 0,0"
                 style="fill:#00ffff;fill-opacity:1;fill-rule:nonzero;stroke:none"
                 id="path788"
                 inkscape:connector-curvature="0" />
            </g>
            <g
               style="fill:#00ffff"
               id="g790"
               transform="translate(351.7212,502.4025)">
              <path
                 d="m 0,0 c 5.431,-1.202 10.883,-2.314 16.334,-3.426 1.22,-0.249 1.785,0.12 2.091,1.526 0.636,2.925 1.163,5.876 1.712,8.82 0.414,2.22 -0.019,3.034 -2.158,3.26 -2.722,0.288 -5.316,1.053 -7.956,1.669 -2.5,0.583 -5.015,1.102 -7.53,1.62 -1.012,0.208 -1.62,-0.2 -1.857,-1.252 C 0.292,10.687 0.006,9.143 -0.347,7.394 -0.753,6.089 -1.272,4.603 -1.676,3.085 -2.233,0.996 -1.988,0.44 0,0"
                 style="fill:#00ffff;fill-opacity:1;fill-rule:nonzero;stroke:none"
                 id="path792"
                 inkscape:connector-curvature="0" />
            </g>
            <g
               style="fill:#00ffff"
               id="g794"
               transform="translate(493.6309,982.0124)">
              <path
                 d="m 0,0 c -2.663,1.036 -5.374,1.949 -8.946,3.229 -1.566,0.488 -4.011,1.29 -6.482,2.008 -0.047,0.013 -0.083,0.021 -0.128,0.034 -0.323,-1.462 -0.929,-2.88 -1.636,-4.375 -0.859,-1.815 -1.534,-3.659 -2.114,-5.529 -0.149,-0.992 -0.326,-1.98 -0.532,-2.962 0.107,-0.044 0.201,-0.088 0.323,-0.13 4.855,-1.707 9.741,-3.324 14.617,-4.97 0.267,-0.09 0.554,-0.135 0.836,-0.173 0.619,-0.083 1.158,0.096 1.409,0.691 1.328,3.156 2.681,6.302 3.918,9.493 C 1.802,-1.297 1.439,-0.561 0,0"
                 style="fill:#00ffff;fill-opacity:1;fill-rule:nonzero;stroke:none"
                 id="path796"
                 inkscape:connector-curvature="0" />
            </g>
            <g
               style="fill:#00ffff"
               id="g798"
               transform="translate(210.9746,618.2204)">
              <path
                 d="m 0,0 c 1.282,0.726 1.39,1.151 0.694,2.384 -2.731,4.834 -5.503,9.645 -8.253,14.469 -0.517,0.906 -1.227,1.108 -2.135,0.64 -3.41,-1.759 -6.815,-3.523 -10.398,-5.375 C -17.461,5.994 -12.389,-2.848 -9.81,-5.857 -6.299,-4.374 -3.325,-1.881 0,0"
                 style="fill:#00ffff;fill-opacity:1;fill-rule:nonzero;stroke:none"
                 id="path800"
                 inkscape:connector-curvature="0" />
            </g>
            <g
               style="fill:#00ffff"
               id="g802"
               transform="translate(177.9282,831.4675)">
              <path
                 d="m 0,0 c -1.204,-3.512 -2.355,-7.043 -3.488,-10.579 -0.653,-2.04 -1.256,-4.096 -1.829,-6.159 -0.266,-0.959 0.152,-1.66 1.081,-2.021 3.215,-1.246 6.63,-1.691 9.962,-2.463 1.048,-0.243 1.545,0.522 1.822,1.382 1.4,4.346 2.587,8.767 4.425,12.397 0.37,1.188 0.606,1.864 0.79,2.553 0.424,1.58 0.237,1.97 -1.325,2.593 C 8.391,-1.082 5.182,-0.305 2.23,1.181 1.134,1.732 0.469,1.367 0,0"
                 style="fill:#00ffff;fill-opacity:1;fill-rule:nonzero;stroke:none"
                 id="path804"
                 inkscape:connector-curvature="0" />
            </g>
            <g
               style="fill:#00ffff"
               id="g806"
               transform="translate(619.5879,1006.1393)">
              <path
                 d="m 0,0 c -8.361,6.715 -16.979,13.064 -25.929,18.962 -11.319,7.46 -23.058,14.188 -35.217,20.192 -10.734,5.301 -21.685,10.07 -32.938,14.165 -2.566,0.934 -5.188,1.71 -7.728,2.695 -4.709,1.825 -9.596,3.072 -14.384,4.636 -3.491,1.141 -7.116,1.865 -10.681,2.775 -6.77,1.955 -13.659,3.397 -20.579,4.699 -3.508,0.659 -7.007,1.409 -10.541,1.872 -2.19,0.287 -4.349,0.74 -6.535,1.004 -3.957,0.477 -7.926,0.851 -11.883,1.322 -1.077,0.129 -2.157,0.23 -3.236,0.335 l -0.338,-72.134 c 17.543,-1.811 35.164,-5.421 52.639,-10.975 68.896,-21.898 120.046,-65.557 154.342,-129.095 33.072,-64.768 39.015,-131.991 18.243,-201.631 -22.668,-68.718 -65.816,-120.274 -129.54,-154.589 -31.546,-16.035 -63.663,-25.681 -96.35,-28.955 l -0.328,-69.876 c 14.283,1.194 28.435,3.323 42.435,6.422 15.296,3.385 30.293,7.795 44.981,13.274 16.257,6.065 31.929,13.381 47.066,21.834 5.952,3.323 11.77,6.901 17.522,10.564 4.96,3.157 9.756,6.575 14.597,9.917 6.32,4.363 12.054,9.485 18.156,14.131 1.887,1.438 3.69,2.994 5.453,4.587 0.193,0.029 0.393,0.113 0.631,0.303 0.658,0.524 1.289,1.08 1.909,1.649 3.56,3.268 7.164,6.491 10.66,9.826 11.043,10.531 21.29,21.797 30.719,33.791 9.68,12.317 18.481,25.236 26.365,38.786 8.725,14.998 16.206,30.593 22.551,46.727 2.495,6.344 4.724,12.8 6.851,19.279 1.833,5.587 3.374,11.271 4.999,16.925 2.121,7.381 3.306,14.977 5.078,22.439 0.703,2.958 1.213,5.973 1.612,8.988 0.826,6.239 1.815,12.452 2.471,18.718 0.92,8.771 1.582,17.556 1.819,26.365 0.686,25.615 -1.554,50.986 -6.676,76.091 -2.228,10.919 -5.055,21.69 -8.375,32.33 -8.341,26.722 -19.851,52.007 -34.477,75.869 -2.854,4.656 -5.909,9.192 -8.95,13.732 -8.085,12.069 -17.059,23.455 -26.733,34.282 C 27.477,-24.112 14.292,-11.479 0,0"
                 style="fill:#00ffff;fill-opacity:1;fill-rule:nonzero;stroke:none"
                 id="path808"
                 inkscape:connector-curvature="0" />
            </g>
            <g
               style="fill:#00ffff"
               id="g810"
               transform="translate(310.3149,515.4621)">
              <path
                 d="M 0,0 C 0.534,-0.238 1.073,-0.461 1.607,-0.695 0.876,-0.374 0.141,-0.058 -0.587,0.271 -0.391,0.182 -0.197,0.089 0,0"
                 style="fill:#00ffff;fill-opacity:1;fill-rule:nonzero;stroke:none"
                 id="path812"
                 inkscape:connector-curvature="0" />
            </g>
            <g
               style="fill:#00ffff"
               id="g818"
               transform="translate(623.6309,216.2326)" />
          </g>
        </g>
        <text
           transform="matrix(1,0,0,-1,133.9189,164.3125)"
           style="font-variant:normal;font-weight:normal;font-stretch:normal;font-size:184.19110107px;font-family:'Lucida Sans Unicode';-inkscape-font-specification:LucidaSansUnicode;writing-mode:lr-tb;fill:#00ffff;fill-opacity:1;fill-rule:nonzero;stroke:none"
           id="text824">
          <tspan
             x="0 57.283432 158.95692 234.29108 329.60999 463.97739"
             y="0"
             sodipodi:role="line"
             id="tspan822">JarvIT</tspan>
        </text>
      </g>
      <path
         inkscape:connector-curvature="0"
         id="path951"
         d="m 362.40953,145.78811 c -4.14401,-0.7705 -5.93045,-1.33604 -8.83616,-2.7973 -5.75597,-2.89464 -10.90834,-8.4283 -13.24556,-14.22579 -1.55419,-3.85515 -1.79457,-5.27987 -1.79457,-10.63604 0,-4.33602 0.0526,-5.01894 0.52353,-6.80011 0.6017,-2.27561 0.85877,-2.94659 2.07588,-5.41827 1.08101,-2.19527 1.16425,-2.33101 2.54297,-4.14685 1.89107,-2.490632 5.5676,-5.922922 7.86134,-7.339092 1.05525,-0.65152 4.13945,-2.0851 5.3799,-2.50066 3.53194,-1.1832 4.03164,-1.25229 9.07971,-1.25539 4.34318,-0.003 5.01624,0.0489 6.80241,0.52115 5.24501,1.38674 9.2371,3.70263 13.00895,7.54674 3.9816,4.057882 6.41862,8.637822 7.57513,14.236102 0.4027,1.94933 0.40151,8.63354 -0.002,10.42486 -0.71774,3.18746 -1.4651,5.36489 -2.51174,7.31796 -0.24064,0.44903 -0.56351,1.05435 -0.71749,1.34514 -1.76934,3.34135 -6.88248,8.45448 -10.22383,10.22382 -0.29079,0.15399 -0.8961,0.47686 -1.34514,0.71749 -1.87014,1.00221 -3.41626,1.54346 -7.09376,2.48334 -1.09797,0.28061 -7.9671,0.50976 -9.07972,0.3029 z m 6.30962,-4.35069 c 6.6934,-0.66757 13.01703,-4.5304 16.89036,-10.31757 1.50215,-2.24437 1.80113,-2.85818 2.68464,-5.51157 1.39014,-4.17494 1.51366,-9.97619 0.30006,-14.09292 -1.00601,-3.41256 -3.28303,-7.25056 -5.78908,-9.75768 -0.90061,-0.90099 -3.89984,-3.357462 -4.0993,-3.357462 -0.0727,0 -0.56593,-0.29167 -1.09616,-0.64815 -2.67817,-1.80058 -7.35677,-3.01019 -11.6131,-3.00245 -4.78382,0.009 -9.11657,1.32494 -13.11514,3.98426 -1.69768,1.12906 -5.09846,4.528202 -6.28801,6.284972 -2.63279,3.88816 -3.97546,8.35385 -3.97546,13.22223 0,7.9392 3.5541,14.55957 10.4999,19.5586 1.32169,0.95125 4.41117,2.37858 6.37719,2.94625 1.48455,0.42866 4.09011,0.8042 6.19753,0.89326 0.38768,0.0164 1.74963,-0.0744 3.02657,-0.20177 z m -8.77572,-3.06263 c -0.55487,-0.17775 -1.4124,-0.50664 -1.90562,-0.73085 -0.49322,-0.22422 -1.00831,-0.44438 -1.14465,-0.48927 -0.52342,-0.17229 -2.76974,-1.66011 -2.7741,-1.83738 -0.005,-0.21646 1.3398,-1.92882 2.40198,-3.05777 0.40265,-0.42797 0.7321,-0.85674 0.7321,-0.95281 0,-0.0961 0.14545,-0.17468 0.32321,-0.17468 0.30913,0 2.81546,3.9804 2.81546,4.47135 0,0.13016 0.0798,0.23665 0.17735,0.23665 0.20358,0 1.39198,2.26811 1.39198,2.65664 0,0.33118 -0.74365,0.28626 -2.01771,-0.12188 z m 10.24213,0.23435 c -0.14952,-0.14951 1.67934,-3.72334 2.22917,-4.3561 0.16916,-0.19466 0.30756,-0.43111 0.30756,-0.52544 0,-0.38677 1.4746,-2.60231 1.69403,-2.54522 0.21125,0.055 1.14302,1.04757 3.07854,3.27954 0.34377,0.39643 0.57258,0.80566 0.50847,0.9094 -0.16367,0.26483 -2.9698,1.87777 -4.04799,2.32676 -2.19914,0.91578 -3.46027,1.22057 -3.76978,0.91106 z m -6.06785,-0.69535 c -0.0757,-0.21578 -0.38531,-0.79587 -0.68802,-1.28909 -0.30271,-0.49322 -0.62476,-1.04809 -0.71564,-1.23305 -0.0909,-0.18496 -0.83696,-1.49647 -1.65793,-2.91448 -1.38251,-2.38793 -1.75398,-3.04271 -3.30689,-5.82895 -0.30926,-0.55487 -1.38205,-2.42126 -2.38398,-4.14752 -1.00193,-1.72627 -1.94472,-3.39088 -2.09508,-3.69915 -0.15037,-0.30826 -0.37326,-0.7118 -0.49533,-0.89676 -0.12206,-0.18496 -0.93372,-1.59736 -1.80368,-3.13867 -0.86995,-1.54131 -1.67952,-2.95371 -1.79903,-3.13866 -0.11951,-0.18496 -0.34061,-0.5885 -0.49134,-0.89676 -0.15072,-0.30827 -0.34376,-0.61193 -0.42898,-0.67482 -0.0852,-0.0629 -0.22431,-0.39077 -0.3091,-0.72862 -0.15646,-0.62338 0.19994,-0.84791 0.69031,-0.43489 0.11714,0.0987 0.81829,0.41594 1.55812,0.70505 0.73983,0.28912 1.76837,0.71282 2.28565,0.94157 0.51729,0.22874 0.9985,0.4159 1.06936,0.4159 0.0709,0 0.50517,0.24154 0.96511,0.53676 0.54534,0.35003 1.07024,0.99346 1.50884,1.84957 0.36991,0.72205 0.73163,1.36325 0.80381,1.4249 0.0722,0.0617 0.43583,0.66697 0.8081,1.34515 1.31506,2.39568 1.93412,3.49645 3.08904,5.49266 0.64205,1.10975 1.23528,2.16905 1.31829,2.354 0.083,0.18496 0.34838,0.63895 0.5897,1.00886 0.24133,0.36992 0.59129,0.97523 0.77769,1.34514 0.18641,0.36992 0.44023,0.82391 0.56404,1.00886 0.12382,0.18496 0.57692,0.95361 1.0069,1.70812 l 0.78177,1.37183 -0.22491,1.87893 c -0.1237,1.03341 -0.27847,2.58513 -0.34394,3.44827 -0.0655,0.86313 -0.16505,1.79632 -0.22128,2.07376 -0.1213,0.59849 -0.65626,0.66891 -0.8516,0.11209 z m 3.12733,0.13074 c -0.13977,-0.43105 -0.5392,-3.80582 -0.70244,-5.93476 l -0.1399,-1.82464 1.99587,-3.44384 c 1.09772,-1.89411 2.065,-3.59516 2.14951,-3.78012 0.0845,-0.18495 0.25138,-0.48761 0.37084,-0.67257 0.4985,-0.77179 4.88273,-8.49422 5.3947,-9.50227 0.57102,-1.12434 0.73709,-1.23471 3.80695,-2.53017 1.21301,-0.51187 2.16811,-0.93562 3.03277,-1.34553 1.48368,-0.70337 1.37362,-0.14347 -0.67267,3.42204 -1.055,1.83827 -2.01611,3.49364 -2.1358,3.6786 -0.11968,0.18495 -0.36841,0.63894 -0.55273,1.00885 -0.18432,0.36992 -0.43282,0.8239 -0.55223,1.00886 -0.11941,0.18496 -0.91431,1.54692 -1.76644,3.02657 -1.44758,2.51359 -1.93472,3.37634 -3.35456,5.94105 -0.81838,1.47828 -2.95337,5.21451 -3.20272,5.60476 -0.11818,0.18496 -0.33819,0.5885 -0.48892,0.89677 -0.15073,0.30826 -0.3286,0.61092 -0.39527,0.67257 -0.0667,0.0617 -0.24547,0.36431 -0.39733,0.67257 -0.72855,1.47884 -1.81145,3.23972 -2.03902,3.31558 -0.13953,0.0465 -0.29731,-0.0499 -0.35061,-0.21432 z m -17.69854,-7.16112 c -1.36447,-1.7688 -3.27869,-5.73957 -3.27869,-6.80118 0,-0.48029 0.12678,-0.56273 1.0649,-0.69243 0.5857,-0.081 1.61978,-0.2783 2.29796,-0.4385 0.67817,-0.1602 1.70444,-0.34935 2.28058,-0.42032 l 1.04755,-0.12904 1.25416,2.14219 1.25417,2.14218 -0.72003,0.93377 c -0.39602,0.51357 -0.87692,1.09543 -1.06866,1.29303 -0.19175,0.19759 -0.88729,0.97946 -1.54565,1.73747 -0.65836,0.75802 -1.31411,1.37391 -1.45724,1.36866 -0.14312,-0.005 -0.65119,-0.51638 -1.12905,-1.13583 z m 30.11888,-0.58211 c -0.79774,-0.95012 -1.77782,-2.08509 -2.17797,-2.52215 -0.40015,-0.43705 -0.72803,-0.87351 -0.72862,-0.96991 -6.7e-4,-0.0964 0.37128,-0.85304 0.82639,-1.68143 1.6614,-3.02415 1.40572,-2.76074 2.53539,-2.61196 0.55488,0.0731 1.56373,0.26532 2.24191,0.42721 0.67818,0.16189 1.7627,0.36504 2.41005,0.45145 0.67298,0.0898 1.177,0.27144 1.177,0.42409 0,0.5152 -0.90931,2.84683 -1.66785,4.27666 -0.92036,1.73485 -2.54456,3.93353 -2.90576,3.93353 -0.14307,0 -0.91281,-0.77737 -1.71054,-1.72749 z m -13.96726,-5.39056 c -0.15224,-0.25416 -1.04002,-1.83501 -1.66819,-2.97052 -0.80985,-1.46395 -2.95108,-5.21156 -3.20232,-5.60476 -0.11818,-0.18496 -0.33819,-0.5885 -0.48891,-0.89676 -0.15073,-0.30827 -0.34927,-0.61533 -0.44121,-0.68237 -0.0919,-0.067 -0.19487,-0.36971 -0.22875,-0.67258 l -0.0616,-0.55067 6.25004,-0.0597 c 4.23981,-0.0405 6.34411,0.0184 6.54255,0.18313 0.23252,0.19298 -0.0192,0.77996 -1.22759,2.86202 -0.83606,1.44059 -1.80282,3.12369 -2.14836,3.74021 -0.34554,0.61653 -0.97029,1.72627 -1.38833,2.4661 -0.41804,0.73983 -0.87311,1.57213 -1.01126,1.84957 -0.24628,0.49453 -0.72675,0.66901 -0.92606,0.33628 z m -20.19586,-6.04894 c -0.19373,-0.6104 0.23465,-4.90099 0.60922,-6.10182 0.34038,-1.09121 0.74139,-1.40038 0.98423,-0.75883 0.0856,0.22604 0.84895,1.60006 1.69641,3.05338 0.84747,1.45332 1.50766,2.81528 1.46709,3.02657 -0.0553,0.28776 -0.46686,0.44808 -1.64025,0.63885 -0.86157,0.14007 -1.88421,0.3272 -2.27253,0.41584 -0.5833,0.13314 -0.73007,0.0855 -0.84417,-0.27399 z m 39.62177,0.16259 c -0.26906,-0.10842 -1.09531,-0.2657 -1.83611,-0.34951 -0.7408,-0.0838 -1.39149,-0.26857 -1.44598,-0.41057 -0.0545,-0.142 0.0836,-0.60887 0.30681,-1.03747 0.22324,-0.42861 0.56239,-1.08194 0.75368,-1.45186 0.19129,-0.36991 0.4491,-0.8239 0.57291,-1.00886 0.12382,-0.18495 0.58226,-0.96272 1.01877,-1.72836 0.47207,-0.82802 0.90767,-1.34833 1.07505,-1.2841 0.41683,0.15995 1.05294,3.5891 1.05294,5.67625 0,1.74218 -0.0216,1.81942 -0.50443,1.80581 -0.27744,-0.008 -0.72457,-0.10291 -0.99364,-0.21133 z m -32.27266,-10.14327 c -3.57432,-1.86451 -3.60534,-1.88482 -3.32011,-2.17337 0.16483,-0.16674 5.21063,-0.22213 16.5901,-0.1821 18.4133,0.0648 17.78477,-0.006 14.55969,1.63984 -0.98644,0.50341 -2.29715,1.18564 -2.91269,1.51606 l -1.11917,0.60076 h -10.55585 -10.55586 z m -1.75825,-4.8677 c -0.18841,-0.30486 1.94685,-2.30465 3.80602,-3.56455 1.88346,-1.276362 2.25212,-1.432692 2.54533,-1.079402 0.35322,0.42561 1.62446,4.418122 1.48078,4.650602 -0.17286,0.27969 -7.65909,0.27334 -7.83213,-0.007 z m 12.72107,-0.0645 c -0.12077,-0.15413 -0.48272,-1.08732 -0.80433,-2.07376 -0.32161,-0.98644 -0.73516,-2.197072 -0.91899,-2.690282 -0.55621,-1.49233 -0.50843,-1.57546 1.07312,-1.86687 2.65446,-0.4891 6.97118,-0.16661 7.24276,0.5411 0.0603,0.15704 -0.0458,0.62047 -0.23576,1.02984 -0.18993,0.40937 -0.59061,1.500952 -0.8904,2.425742 -1.00537,3.10141 -0.80138,2.91447 -3.18046,2.91447 -1.38653,0 -2.13861,-0.0922 -2.28594,-0.28024 z m 9.27132,0.0996 c -0.0614,-0.0993 0.26054,-1.20885 0.71539,-2.4656 0.91624,-2.531562 1.02238,-2.609692 2.43957,-1.795832 1.88585,1.082982 5.0927,3.888192 4.86537,4.256002 -0.14806,0.23958 -7.87238,0.2448 -8.02033,0.005 z"
         style="fill:#00ffff;stroke-width:0.22419049" />
      <use
         height="100%"
         width="100%"
         transform="translate(3.8095238e-6)"
         style="fill:#00ffff"
         id="use24059"
         xlink:href="#g628"
         y="0"
         x="0" />
      <path
         inkscape:transform-center-y="3.7797619"
         inkscape:transform-center-x="-38.553571"
         inkscape:connector-curvature="0"
         id="path951-0"
         d="m 407.28159,278.44056 c -2.39371,-0.44467 -3.42561,-0.77106 -5.10404,-1.61439 -3.32482,-1.67057 -6.30099,-4.86419 -7.65104,-8.21007 -0.89775,-2.22491 -1.0366,-3.04715 -1.0366,-6.13834 0,-2.50243 0.0304,-2.89656 0.30241,-3.92452 0.34756,-1.31331 0.49605,-1.70055 1.19909,-3.12702 0.62442,-1.26695 0.67251,-1.34529 1.4689,-2.39325 1.09234,-1.43741 3.21601,-3.41827 4.54095,-4.23559 0.60954,-0.376 2.39107,-1.20336 3.10759,-1.44319 2.04016,-0.68286 2.3288,-0.72273 5.24472,-0.72452 2.50876,-0.002 2.89754,0.0282 3.92929,0.30077 3.02967,0.80033 5.33563,2.13689 7.51436,4.35542 2.2999,2.34191 3.7076,4.98511 4.37563,8.21602 0.23261,1.12501 0.23193,4.98264 -10e-4,6.01646 -0.41459,1.83957 -0.84629,3.09622 -1.45086,4.22338 -0.139,0.25915 -0.3255,0.6085 -0.41445,0.77632 -1.02202,1.92838 -3.97553,4.8793 -5.90559,5.90043 -0.16797,0.0889 -0.51762,0.27521 -0.777,0.41408 -1.08025,0.5784 -1.97333,0.89077 -4.09757,1.4332 -0.63422,0.16195 -4.60204,0.2942 -5.24473,0.17481 z m 3.64463,-2.51089 c 3.86631,-0.38527 7.51904,-2.61461 9.75639,-5.95454 0.86769,-1.29528 1.04039,-1.64953 1.55073,-3.18087 0.80299,-2.40946 0.87434,-5.75752 0.17333,-8.13339 -0.58111,-1.96947 -1.89638,-4.18448 -3.34396,-5.63141 -0.52022,-0.51998 -2.25266,-1.93767 -2.36788,-1.93767 -0.042,0 -0.3269,-0.16834 -0.63317,-0.37407 -1.547,-1.03916 -4.2495,-1.73726 -6.70809,-1.73279 -2.76328,0.005 -5.26601,0.76466 -7.5757,2.29942 -0.98064,0.65161 -2.94503,2.61334 -3.63215,3.62722 -1.52078,2.24396 -2.29635,4.82122 -2.29635,7.63089 0,4.58192 2.05296,8.4027 6.06506,11.28777 0.76345,0.54899 2.54803,1.37274 3.68367,1.70036 0.85752,0.24739 2.36257,0.46413 3.57988,0.51552 0.22394,0.009 1.01064,-0.0429 1.74824,-0.11644 z m -5.06913,-1.76753 c -0.32051,-0.10258 -0.81584,-0.29239 -1.10074,-0.42179 -0.2849,-0.1294 -0.58243,-0.25646 -0.66119,-0.28237 -0.30234,-0.0994 -1.59988,-0.95809 -1.6024,-1.0604 -0.003,-0.12492 0.77391,-1.11317 1.38746,-1.76472 0.23258,-0.24699 0.42288,-0.49444 0.42288,-0.54989 0,-0.0555 0.084,-0.10081 0.1867,-0.10081 0.17856,0 1.62629,2.29719 1.62629,2.58053 0,0.0751 0.0461,0.13658 0.10244,0.13658 0.1176,0 0.80406,1.30898 0.80406,1.53321 0,0.19114 -0.42956,0.16521 -1.1655,-0.0703 z m 5.91617,0.13525 c -0.0864,-0.0863 0.97004,-2.14883 1.28764,-2.51401 0.0977,-0.11235 0.17766,-0.24881 0.17766,-0.30325 0,-0.22321 0.85177,-1.50186 0.97852,-1.46891 0.12202,0.0317 0.66024,0.60458 1.77826,1.89271 0.19857,0.22879 0.33074,0.46496 0.29371,0.52483 -0.0945,0.15284 -1.71545,1.08371 -2.33825,1.34284 -1.27029,0.52852 -1.99875,0.70442 -2.17754,0.52579 z m -3.50497,-0.4013 c -0.0437,-0.12453 -0.22257,-0.45932 -0.39742,-0.74397 -0.17486,-0.28465 -0.36089,-0.60488 -0.41338,-0.71162 -0.0525,-0.10675 -0.48345,-0.86365 -0.95767,-1.68202 -0.79858,-1.37814 -1.01315,-1.75603 -1.91016,-3.36404 -0.17864,-0.32023 -0.79832,-1.39737 -1.37706,-2.39364 -0.57875,-0.99628 -1.12333,-1.95697 -1.21019,-2.13488 -0.0868,-0.1779 -0.2156,-0.4108 -0.28611,-0.51754 -0.0705,-0.10675 -0.53935,-0.92188 -1.04186,-1.81141 -0.50251,-0.88953 -0.97015,-1.70466 -1.03918,-1.8114 -0.069,-0.10675 -0.19675,-0.33964 -0.28381,-0.51755 -0.0871,-0.17791 -0.19857,-0.35316 -0.2478,-0.38945 -0.0492,-0.0363 -0.12956,-0.22552 -0.17854,-0.42051 -0.0904,-0.35977 0.11549,-0.48935 0.39874,-0.25098 0.0677,0.057 0.47267,0.24005 0.90002,0.4069 0.42735,0.16686 1.02147,0.41139 1.32026,0.5434 0.29881,0.13202 0.57677,0.24003 0.6177,0.24003 0.0409,0 0.2918,0.1394 0.55748,0.30978 0.315,0.20201 0.6182,0.57335 0.87155,1.06743 0.21367,0.41672 0.42261,0.78677 0.4643,0.82235 0.0417,0.0356 0.25175,0.38493 0.46679,0.77632 0.75962,1.38261 1.1172,2.01789 1.78432,3.16996 0.37087,0.64046 0.71354,1.25181 0.76149,1.35855 0.0479,0.10675 0.20123,0.36876 0.34062,0.58224 0.1394,0.21349 0.34155,0.56283 0.44922,0.77632 0.10768,0.21349 0.25429,0.4755 0.32581,0.58224 0.0715,0.10674 0.33325,0.55035 0.58162,0.9858 l 0.45157,0.79171 -0.12991,1.08438 c -0.0715,0.59641 -0.16086,1.49195 -0.19867,1.99009 -0.0378,0.49813 -0.0953,1.0367 -0.12782,1.19682 -0.0701,0.3454 -0.37908,0.38604 -0.49191,0.0647 z m 1.80644,0.0754 c -0.0807,-0.24877 -0.31146,-2.19643 -0.40575,-3.4251 l -0.0808,-1.05305 1.15287,-1.98753 c 0.63408,-1.09314 1.19281,-2.07486 1.24163,-2.1816 0.0488,-0.10674 0.1452,-0.28141 0.2142,-0.38816 0.28795,-0.44542 2.82042,-4.90223 3.11615,-5.48401 0.32984,-0.64888 0.42577,-0.71258 2.19901,-1.46022 0.70067,-0.29542 1.25237,-0.53997 1.75182,-0.77654 0.85702,-0.40593 0.79345,-0.0828 -0.38855,1.97495 -0.6094,1.06091 -1.16457,2.01627 -1.23371,2.12301 -0.0691,0.10674 -0.2128,0.36875 -0.31927,0.58223 -0.10647,0.21349 -0.25001,0.4755 -0.31899,0.58224 -0.069,0.10675 -0.52813,0.89277 -1.02035,1.74672 -0.83616,1.45065 -1.11755,1.94857 -1.93769,3.42873 -0.47272,0.85315 -1.70596,3.00943 -1.84999,3.23465 -0.0683,0.10675 -0.19535,0.33964 -0.28242,0.51755 -0.0871,0.17791 -0.18981,0.35258 -0.22832,0.38816 -0.0385,0.0356 -0.14179,0.21025 -0.22951,0.38816 -0.42083,0.85347 -1.04635,1.86972 -1.1778,1.9135 -0.0806,0.0268 -0.17173,-0.0288 -0.20252,-0.12369 z m -10.22322,-4.13286 c -0.78816,-1.02083 -1.89387,-3.31246 -1.89387,-3.92514 0,-0.27719 0.0732,-0.32477 0.61511,-0.39962 0.33832,-0.0468 0.93564,-0.16062 1.32738,-0.25307 0.39173,-0.0925 0.98453,-0.20162 1.31733,-0.24258 l 0.6051,-0.0745 0.72444,1.23631 0.72445,1.23631 -0.41592,0.5389 c -0.22875,0.2964 -0.50653,0.6322 -0.61729,0.74624 -0.11076,0.11404 -0.51252,0.56528 -0.89281,1.00274 -0.38029,0.43748 -0.75907,0.79292 -0.84175,0.78989 -0.0827,-0.003 -0.37615,-0.29801 -0.65217,-0.65551 z m 17.39759,-0.33596 c -0.4608,-0.54833 -1.02692,-1.20335 -1.25806,-1.45559 -0.23114,-0.25224 -0.42054,-0.50413 -0.42088,-0.55976 -4.5e-4,-0.0556 0.21447,-0.49232 0.47735,-0.9704 0.95968,-1.74532 0.81199,-1.59329 1.46452,-1.50743 0.32052,0.0422 0.90326,0.15312 1.295,0.24655 0.39173,0.0934 1.01819,0.21068 1.39212,0.26055 0.38873,0.0518 0.67987,0.15665 0.67987,0.24475 0,0.29734 -0.52525,1.64298 -0.9634,2.46817 -0.53163,1.00123 -1.46982,2.27014 -1.67846,2.27014 -0.0826,0 -0.52727,-0.44864 -0.98806,-0.99698 z m -8.06792,-3.11103 c -0.0879,-0.14668 -0.60075,-1.05903 -0.9636,-1.71436 -0.46779,-0.84488 -1.70463,-3.00773 -1.84976,-3.23465 -0.0683,-0.10675 -0.19535,-0.33964 -0.28241,-0.51755 -0.0871,-0.17791 -0.20174,-0.35512 -0.25485,-0.39381 -0.0531,-0.0387 -0.11257,-0.21337 -0.13214,-0.38816 l -0.0356,-0.31781 3.61022,-0.0345 c 2.44904,-0.0234 3.66455,0.0106 3.77918,0.10569 0.13431,0.11137 -0.0111,0.45013 -0.7091,1.65174 -0.48293,0.8314 -1.04136,1.80276 -1.24096,2.15857 -0.19959,0.35582 -0.56047,0.99628 -0.80194,1.42325 -0.24147,0.42698 -0.50433,0.90732 -0.58413,1.06744 -0.14226,0.2854 -0.4198,0.3861 -0.53492,0.19407 z m -11.66575,-3.491 c -0.1119,-0.35227 0.13554,-2.82848 0.3519,-3.52152 0.19662,-0.62976 0.42825,-0.80819 0.56853,-0.43794 0.0494,0.13046 0.49038,0.92344 0.97989,1.76219 0.48953,0.83875 0.87088,1.62477 0.84744,1.74671 -0.0319,0.16607 -0.26967,0.2586 -0.94746,0.3687 -0.49767,0.0808 -1.08838,0.18883 -1.31268,0.23999 -0.33693,0.0768 -0.42171,0.0493 -0.48762,-0.15813 z m 22.88675,0.0938 c -0.15541,-0.0626 -0.63268,-0.15334 -1.06059,-0.20171 -0.42791,-0.0484 -0.80377,-0.155 -0.83524,-0.23695 -0.0315,-0.082 0.0483,-0.3514 0.17722,-0.59875 0.12895,-0.24737 0.32485,-0.62442 0.43535,-0.83791 0.11049,-0.21349 0.25941,-0.47549 0.33093,-0.58224 0.0715,-0.10674 0.33633,-0.55561 0.58847,-0.99748 0.27268,-0.47787 0.5243,-0.77816 0.62098,-0.74109 0.24078,0.0923 0.60821,2.07136 0.60821,3.27591 0,1.00546 -0.0125,1.05004 -0.29137,1.04218 -0.16026,-0.005 -0.41853,-0.0594 -0.57396,-0.12196 z m -18.64168,-5.85395 c -2.06463,-1.07605 -2.08255,-1.08777 -1.9178,-1.2543 0.0952,-0.0962 3.00982,-0.1282 9.58296,-0.1051 10.63608,0.0374 10.27303,-0.003 8.41012,0.9464 -0.5698,0.29053 -1.3269,0.68426 -1.68246,0.87495 l -0.64647,0.34672 h -6.09738 -6.09739 z m -1.01562,-2.80927 c -0.10883,-0.17594 1.12456,-1.33007 2.19848,-2.0572 1.08794,-0.73662 1.30089,-0.82684 1.47026,-0.62294 0.20403,0.24563 0.93834,2.54981 0.85534,2.68398 -0.0998,0.16141 -4.42412,0.15775 -4.52408,-0.004 z m 7.34808,-0.0372 c -0.0698,-0.089 -0.27883,-0.62752 -0.4646,-1.19682 -0.18577,-0.5693 -0.42465,-1.26799 -0.53084,-1.55263 -0.32128,-0.86126 -0.29368,-0.90924 0.61987,-1.07742 1.5333,-0.28227 4.02677,-0.0962 4.18364,0.31228 0.0348,0.0906 -0.0265,0.35809 -0.13618,0.59435 -0.10971,0.23626 -0.34116,0.86624 -0.51433,1.39996 -0.58073,1.78991 -0.4629,1.68202 -1.83713,1.68202 -0.8009,0 -1.23532,-0.0532 -1.32043,-0.16174 z m 5.3554,0.0575 c -0.0355,-0.0573 0.1505,-0.69766 0.41323,-1.42297 0.52925,-1.46102 0.59056,-1.50612 1.40918,-1.03642 1.08932,0.62502 2.9417,2.24398 2.81038,2.45625 -0.0855,0.13827 -4.54733,0.14128 -4.63279,0.003 z"
         style="fill:#00ffff;stroke-width:0.12944272" />
    </g>
  </g>
</svg>
